M48
; DRILL file {KiCad 9.0.6} date 2025-12-13T09:15:01-0800
; FORMAT={-:-/ absolute / metric / decimal}
; #@! TF.CreationDate,2025-12-13T09:15:01-08:00
; #@! TF.GenerationSoftware,Kicad,Pcbnew,9.0.6
; #@! TF.FileFunction,Plated,1,2,PTH
FMAT,2
METRIC
; #@! TA.AperFunction,Plated,PTH,ViaDrill
T1C0.300
; #@! TA.AperFunction,Plated,PTH,ComponentDrill
T2C0.500
; #@! TA.AperFunction,Plated,PTH,ComponentDrill
T3C0.700
; #@! TA.AperFunction,Plated,PTH,ComponentDrill
T4C0.800
; #@! TA.AperFunction,Plated,PTH,ComponentDrill
T5C0.900
; #@! TA.AperFunction,Plated,PTH,ComponentDrill
T6C1.000
; #@! TA.AperFunction,Plated,PTH,ComponentDrill
T7C1.100
%
G90
G05
T1
X109.398Y-210.896
X110.388Y-262.159
X110.515Y-339.61
X113.03Y-275.082
X113.03Y-278.536
X113.03Y-301.777
X113.03Y-339.61
X115.612Y-203.95
X115.735Y-160.642
X118.11Y-237.363
X118.11Y-315.239
X118.974Y-160.053
X119.786Y-218.973
X120.523Y-204.724
X120.65Y-231.089
X120.65Y-314.63
X121.869Y-159.652
X121.895Y-227.365
X122.149Y-218.288
X122.504Y-205.231
X122.599Y-215.964
X123.19Y-230.709
X123.19Y-238.252
X123.19Y-314.02
X123.927Y-205.905
X123.957Y-206.705
X124.46Y-332.435
X124.714Y-159.251
X125.298Y-335.28
X125.73Y-188.71
X125.73Y-230.048
X125.73Y-245.618
X125.73Y-274.422
X125.733Y-313.407
X126.162Y-336.03
X126.644Y-254.422
X127.025Y-331.911
X127.169Y-203.95
X127.762Y-158.85
X128.27Y-229.768
X128.27Y-312.801
X128.27Y-336.03
X129.6Y-239.462
X129.692Y-253.857
X130.683Y-158.449
X130.81Y-312.191
X130.81Y-331.51
X131.674Y-255.057
X132.029Y-220.904
X132.029Y-245.186
X132.049Y-331.109
X133.325Y-204.648
X133.35Y-229.422
X133.36Y-311.572
X133.629Y-158.048
X134.544Y-242.468
X135.42Y-254.444
X135.852Y-205.27
X135.891Y-227.613
X136.55Y-157.646
X136.754Y-229.016
X137.084Y-241.792
X137.16Y-338.973
X137.236Y-205.867
X137.757Y-185.687
X138.405Y-233.782
X138.405Y-240.589
X138.557Y-309.241
X138.99Y-227.595
X139.675Y-228.61
X139.7Y-241.183
X139.7Y-339.573
X139.725Y-278.536
X140.424Y-227.701
X140.83Y-218.871
X140.97Y-252.035
X141.046Y-228.203
X141.656Y-226.501
X142.215Y-313.407
X142.24Y-267.021
X142.409Y-214.655
X142.443Y-227.406
X142.902Y-312.807
X143.307Y-173.406
X143.497Y-312.207
X143.709Y-225.857
X144.116Y-311.607
X144.551Y-224.79
X144.78Y-266.614
X145.009Y-212.115
X145.085Y-174.828
X145.609Y-205.089
X145.694Y-160.858
X146.749Y-203.949
X147.32Y-189.027
X147.32Y-266.157
X147.422Y-211.455
X148.133Y-160.452
X148.895Y-160.05
X149.86Y-190.525
X149.86Y-265.557
X149.962Y-216.5
X151.105Y-231.8
X151.13Y-175.799
X151.74Y-275.07
X152.4Y-156.841
X152.4Y-274.396
X152.4Y-335.31
X152.451Y-302.34
X152.476Y-303.225
X152.502Y-238.43
X153.67Y-183.439
X153.67Y-231.15
X153.67Y-303.867
X153.733Y-201.358
X154.94Y-336.03
X156.159Y-253.838
X156.21Y-230.749
X156.21Y-315.239
X156.235Y-182.821
X156.261Y-149.962
X158.75Y-182.22
X158.75Y-201.041
X158.75Y-230.337
X158.75Y-297.723
X158.775Y-314.63
X159.41Y-149.321
X159.589Y-172.181
X160.02Y-152.92
X160.071Y-220.929
X160.071Y-226.806
X161.265Y-229.413
X161.29Y-181.61
X161.29Y-297.322
X161.315Y-314.02
X162.077Y-172.755
X162.458Y-236.303
X162.56Y-152.32
X163.805Y-313.407
X163.83Y-229.011
X163.83Y-296.921
X163.83Y-338.973
X163.855Y-180.98
X163.855Y-235.102
X165.1Y-220.37
X165.125Y-223.596
X165.379Y-151.486
X166.345Y-228.6
X166.345Y-339.573
X166.37Y-180.368
X166.37Y-234.608
X166.37Y-236.896
X166.37Y-262.14
X166.37Y-275.07
X166.37Y-296.52
X166.37Y-312.807
X166.37Y-336.63
X166.395Y-278.511
X167.665Y-282.363
X167.691Y-223.622
X168.326Y-150.562
X168.732Y-214.833
X168.91Y-179.746
X168.91Y-228.016
X168.91Y-234.608
X168.91Y-296.119
X168.91Y-312.207
X169.037Y-346.476
X170.07Y-234.611
X170.18Y-282.963
X170.231Y-223.622
X170.51Y-346.862
X171.374Y-235.211
X171.45Y-207.76
X171.45Y-295.718
X171.45Y-311.572
X171.806Y-347.278
X172.551Y-238.836
X172.644Y-319.52
X172.72Y-283.563
X172.771Y-168.453
X173.234Y-347.887
X173.914Y-320.142
X173.939Y-236.118
X173.99Y-295.317
X174.015Y-198.476
X175.26Y-284.163
X175.429Y-238.227
X175.844Y-174.431
X175.92Y-145.39
X176.52Y-168.565
X176.52Y-172.181
X176.53Y-178.791
X176.561Y-320.777
X177.078Y-172.755
X177.105Y-169.214
X177.216Y-163.195
X177.631Y-237.617
X177.775Y-321.351
X177.825Y-270.51
X177.825Y-284.763
X178.029Y-261.54
X178.55Y-149.129
X179.032Y-287.185
X179.07Y-274.371
X179.07Y-337.998
X179.095Y-239.462
X179.73Y-164.684
X180.315Y-220.99
X180.315Y-269.926
X180.315Y-285.363
X181.61Y-215.983
X181.61Y-288.29
X181.61Y-336.042
X181.635Y-229.946
X182.626Y-285.775
X182.711Y-269.3
X183.259Y-286.265
X183.413Y-268.691
X184.048Y-271.907
X184.074Y-329.463
X184.15Y-229.337
X184.15Y-242.646
X184.658Y-144.78
X184.709Y-175.641
X185.42Y-149.321
X186.588Y-192.735
X186.665Y-163.322
X186.665Y-241.798
X186.69Y-228.702
X186.766Y-207.264
X187.96Y-149.921
X187.96Y-319.52
X188.493Y-271.755
X188.57Y-275.066
X189.23Y-173.355
X189.23Y-228.067
X189.23Y-241.275
X189.23Y-302.666
X189.23Y-347.37
X189.255Y-163.398
X190.5Y-319.52
X190.5Y-338.973
X190.525Y-160.477
X190.983Y-337.252
X191.719Y-160.05
X191.77Y-227.406
X191.77Y-240.741
X191.77Y-302.092
X191.77Y-346.761
X191.795Y-175.717
X191.795Y-262.23
X191.872Y-144.247
X193.027Y-339.534
X193.04Y-278.511
X193.04Y-319.52
X193.64Y-149.321
X194.141Y-159.649
X194.31Y-226.806
X194.31Y-234.01
X194.31Y-346.151
X195.555Y-319.583
X195.58Y-159.248
X195.631Y-156.439
X196.278Y-236.766
X196.825Y-175.031
X196.85Y-167.878
X196.85Y-345.542
X198.095Y-190.525
X198.12Y-165.573
X198.298Y-294.275
X198.704Y-145.872
X198.704Y-158.846
X199.39Y-172.181
X199.39Y-305.32
X199.39Y-344.907
X199.441Y-234.112
X199.894Y-234.771
X200.66Y-152.939
X200.66Y-158.445
X200.66Y-188.925
X201.6Y-200.073
X201.879Y-163.347
X201.93Y-303.261
X201.93Y-344.246
X201.94Y-150.358
X201.946Y-174.431
X203.175Y-174.498
X203.2Y-149.504
X203.2Y-157.836
X203.2Y-188.71
X203.784Y-201.453
X204.445Y-164.79
X204.47Y-172.618
X204.47Y-304.467
X204.47Y-343.668
X205.13Y-336.642
X205.14Y-275.67
X205.296Y-157.848
X205.419Y-173.38
X205.618Y-162.768
X205.74Y-199.138
X205.74Y-274.35
X205.74Y-335.331
X205.765Y-149.34
X205.765Y-189.711
X205.956Y-200.673
X206.985Y-149.741
X207.01Y-342.951
X208.255Y-336.042
X208.28Y-152.908
X208.28Y-275.07
X208.305Y-308.864
X209.605Y-166.141
X209.677Y-277.622
X209.688Y-293.665
X210.011Y-165.433
X210.277Y-293.062
X210.317Y-276.982
X210.322Y-240.69
X210.41Y-164.648
X210.813Y-150.959
X210.813Y-163.957
X210.917Y-276.432
X210.922Y-241.31
X210.922Y-292.462
X211.236Y-163.16
X211.566Y-275.964
X211.591Y-291.862
X211.634Y-162.387
X211.849Y-226.784
X212.038Y-161.696
X212.065Y-341.63
X212.157Y-275.37
X212.166Y-248.768
X212.166Y-291.278
X212.573Y-199.974
X212.633Y-161.087
X212.766Y-274.852
X212.776Y-249.377
X212.792Y-290.693
X212.877Y-150.358
X213.238Y-195.605
X213.385Y-242.545
X213.385Y-274.345
X213.385Y-290.084
X213.804Y-227.419
X213.858Y-196.215
X213.985Y-289.484
X213.995Y-241.91
X213.995Y-273.825
X214.411Y-291.702
X214.452Y-158.242
X214.452Y-196.752
X214.812Y-292.5
X215.059Y-184.039
X215.213Y-293.266
X215.453Y-158.938
X215.562Y-157.98
X215.614Y-294.066
X215.646Y-326.212
X215.646Y-342.976
X215.656Y-311.572
X215.659Y-197.271
X215.659Y-214.782
X216.015Y-294.853
X216.256Y-326.847
X216.256Y-343.628
X216.258Y-312.207
X216.259Y-197.8
X216.418Y-295.652
X216.504Y-159.583
X216.53Y-158.709
X216.814Y-237.617
X216.819Y-296.35
X216.859Y-169.342
X216.891Y-312.807
X216.891Y-327.457
X216.891Y-344.272
X217.41Y-238.244
X217.417Y-231.514
X217.424Y-296.951
X217.437Y-230.645
X217.459Y-168.813
X217.464Y-228.062
X217.493Y-229.736
X217.521Y-228.86
X217.526Y-328.066
X217.526Y-344.907
X217.535Y-313.407
X217.561Y-160.233
X217.604Y-159.342
X217.881Y-145.898
X218.049Y-238.862
X218.135Y-328.676
X218.135Y-345.542
X218.145Y-314.03
X218.524Y-160.118
X218.575Y-160.917
X218.745Y-314.63
X218.745Y-329.286
X218.745Y-346.151
X218.872Y-254.533
X219.329Y-346.761
X219.354Y-315.214
X219.354Y-329.87
X219.584Y-160.756
X219.667Y-161.551
X219.685Y-268.249
X219.799Y-269.075
X219.964Y-315.773
X219.964Y-347.37
X219.969Y-330.479
X220.584Y-162.349
X220.586Y-161.481
X220.612Y-269.25
X220.76Y-270.037
X221.646Y-162.128
X221.704Y-270.904
X221.705Y-270.052
X221.723Y-271.787
X221.833Y-162.906
X222.259Y-175.743
X222.586Y-229.744
X222.783Y-162.906
X223.121Y-271.255
X223.183Y-221.973
X223.186Y-179.167
X223.186Y-207.062
X223.393Y-245.186
X223.787Y-207.641
X223.799Y-179.768
X223.799Y-221.463
X223.834Y-145.304
X224.004Y-245.759
X224.387Y-180.379
X224.419Y-220.947
X224.433Y-208.215
X224.612Y-246.278
X224.659Y-146.13
X224.987Y-181.005
X225.019Y-220.398
X225.047Y-208.728
X225.222Y-246.863
X225.619Y-219.869
X225.62Y-209.286
X225.647Y-181.606
X225.706Y-146.135
X226.251Y-209.778
X226.257Y-219.387
X226.314Y-182.211
X226.72Y-146.135
X226.857Y-218.842
X226.896Y-210.252
X226.914Y-182.826
X227.149Y-228.01
X227.254Y-172.771
X227.279Y-179.07
X227.413Y-263.41
X227.432Y-210.845
X227.457Y-218.313
X227.514Y-183.439
X228.092Y-282.921
X228.6Y-347.37
X229.234Y-283.521
X229.895Y-240.005
X230.971Y-278.562
X231.038Y-222.961
X231.165Y-346.752
X232.41Y-227.41
X232.41Y-289.509
X233.68Y-346.151
X233.731Y-223.4
X234.925Y-230.353
X234.95Y-226.81
X236.22Y-172.796
X236.245Y-345.542
X236.246Y-193.01
X237.494Y-262.81
X237.515Y-173.396
X238.76Y-175.158
X238.785Y-344.907
X239.954Y-216.23
X240.03Y-226.136
X240.259Y-183.261
X240.594Y-252.344
X240.843Y-229.616
X241.3Y-171.501
X241.3Y-344.246
X242.189Y-175.799
X242.57Y-252.111
X243.815Y-196.621
X243.84Y-193.01
X243.865Y-343.628
X245.148Y-180.657
X246.355Y-255.219
X246.38Y-192.202
X246.38Y-204.5
X246.405Y-343.027
X248.818Y-266.344
X248.92Y-214.757
X249.423Y-250.866
X250.021Y-304.495
X250.317Y-195.412
X250.317Y-196.612
X250.368Y-222.199
X250.8Y-305.32
X252.425Y-222.682
X252.882Y-256.515
X254.076Y-251.511
X254.432Y-172.196
X254.737Y-196.266
X255.295Y-262.179
X257.073Y-211.633
X257.124Y-197.475
X257.607Y-351.13
X257.785Y-208.512
X257.81Y-264.084
X258.42Y-223.063
X258.445Y-189.31
X258.978Y-282.321
X259.08Y-255.254
X259.249Y-211.861
X259.715Y-325.12
X260.35Y-191.211
X260.35Y-226.81
X260.35Y-243.32
X260.35Y-246.9
X261.188Y-281.42
X262.864Y-226.09
X262.89Y-180.915
X262.89Y-220.574
X262.89Y-243.32
X262.915Y-188.036
X262.915Y-246.278
X263.576Y-189.711
X264.135Y-253.086
X264.16Y-347.447
X264.185Y-250.621
X264.871Y-166.945
X264.998Y-214.306
X265.379Y-173.956
X265.429Y-315.6
X265.43Y-245.678
X265.709Y-199.576
X265.76Y-184.175
X266.23Y-167.043
X266.522Y-204.505
X266.7Y-304.165
X266.725Y-346.752
X267.716Y-167.157
X267.912Y-245.077
X267.945Y-243.32
X267.97Y-181.55
X267.97Y-188.011
X267.97Y-259.83
X267.97Y-260.94
X267.97Y-315.198
X267.995Y-267.757
X268.859Y-167.208
X269.164Y-220.943
X269.164Y-251.221
X269.215Y-289.687
X269.24Y-173.955
X269.24Y-346.151
X270.485Y-199.175
X270.51Y-191.742
X270.51Y-223.06
X270.51Y-254.508
X270.51Y-293.091
X270.51Y-314.797
X271.678Y-239.344
X271.729Y-182.346
X271.78Y-345.542
X271.983Y-184.789
X273.05Y-173.955
X273.05Y-182.346
X273.05Y-207.61
X273.05Y-227.409
X273.05Y-284.121
X273.05Y-314.385
X273.65Y-298.552
X274.228Y-239.852
X274.295Y-260.34
X274.32Y-213.706
X274.345Y-344.907
X274.828Y-218.44
X274.828Y-251.857
X275.559Y-229.057
X275.565Y-294.64
X275.572Y-252.457
X275.59Y-207.182
X275.59Y-313.995
X275.615Y-267.757
X275.615Y-275.07
X276.224Y-183.588
X276.63Y-257.782
X276.86Y-144.78
X276.86Y-290.982
X276.86Y-344.297
X276.885Y-309.947
X276.936Y-218.542
X277.073Y-183.588
X277.46Y-198.075
X278.074Y-198.78
X278.13Y-206.781
X278.13Y-208.331
X278.13Y-313.594
X278.308Y-190.914
X278.74Y-148.176
X278.765Y-252.758
X279.4Y-293.878
X279.4Y-297.649
X279.425Y-343.628
X279.628Y-174.66
X279.984Y-172.196
X280.42Y-220.141
X280.657Y-192.341
X280.657Y-275.857
X280.67Y-206.38
X280.67Y-262.81
X280.67Y-286.141
X280.67Y-313.193
X280.797Y-173.396
X281.301Y-182.093
X281.305Y-219.74
X281.309Y-225.54
X281.935Y-149.017
X281.94Y-343.027
X281.991Y-215.951
X282.042Y-213.274
X283.181Y-261.54
X283.21Y-205.994
X284.378Y-184.287
X284.48Y-261.544
X284.505Y-319.888
X284.658Y-240.259
X285.581Y-219.313
X285.75Y-205.613
X287.02Y-144.78
X287.62Y-284.121
X287.68Y-297.51
X288.265Y-167.894
X288.265Y-180.178
X288.265Y-235.136
X288.29Y-156.397
X288.29Y-204.943
X288.493Y-309.947
X288.95Y-285.54
X288.976Y-292.176
X289.052Y-254.559
X289.245Y-195.571
X289.306Y-309.347
X289.509Y-184.76
X289.56Y-156.804
X289.56Y-174.558
X289.56Y-212.192
X289.56Y-247.62
X290.703Y-338.312
X290.835Y-320.116
X290.855Y-157.21
X291.414Y-327.304
X291.643Y-306.969
X291.668Y-288.315
X292.036Y-254.013
X292.075Y-251.866
X292.1Y-157.617
X292.1Y-196.612
X292.1Y-228.575
X292.274Y-327.924
X292.278Y-290.982
X293.192Y-199.034
X293.345Y-315.113
X293.37Y-158.023
X294.615Y-286.741
X294.615Y-301.625
X294.64Y-158.429
X294.64Y-246.9
X294.64Y-263.028
X294.665Y-192.29
X294.665Y-260.34
X295.215Y-217.17
X295.91Y-158.836
X295.91Y-255.88
X295.915Y-300.422
X295.961Y-191.745
X297.18Y-173.396
X297.18Y-182.651
X297.18Y-226.81
X297.18Y-252.457
X297.205Y-159.242
X297.205Y-246.278
X297.561Y-284.92
X298.348Y-180.325
X298.348Y-254.679
X298.45Y-159.649
X298.45Y-312.851
X299.542Y-268.342
X299.656Y-184.566
X299.72Y-160.055
X299.72Y-304.724
X299.72Y-306.045
X299.74Y-314.311
X299.755Y-251.857
X300.838Y-219.74
X300.863Y-230.39
X300.965Y-160.461
X300.99Y-347.37
X300.995Y-313.252
X301.041Y-300.823
X301.244Y-314.071
X301.641Y-192.346
X302.184Y-314.997
X302.26Y-160.868
X302.26Y-253.076
X302.26Y-305.439
X302.285Y-183.251
X302.899Y-205.22
X303.53Y-161.3
X303.53Y-321.234
X303.53Y-346.761
X303.535Y-313.653
X303.581Y-294.192
X304.749Y-198.095
X304.8Y-161.706
X304.8Y-243.83
X304.8Y-304.839
X304.902Y-180.325
X305.232Y-279.375
X305.46Y-302.462
X305.638Y-301.224
X306.045Y-162.103
X306.07Y-233.451
X306.07Y-346.151
X306.241Y-301.822
X306.502Y-186.03
X306.832Y-183.347
X307.213Y-162.56
X307.34Y-293.608
X307.518Y-278.769
X307.913Y-269.33
X308.61Y-260.315
X308.61Y-345.542
X308.615Y-314.054
X308.661Y-206.273
X309.88Y-144.78
X309.88Y-308.188
X310.236Y-278.368
X310.464Y-284.201
X310.845Y-253.676
X311.15Y-163.306
X311.155Y-293.202
X311.175Y-344.907
X311.277Y-185.389
X312.42Y-163.713
X312.42Y-192.29
X312.42Y-253.676
X312.42Y-261.553
X312.42Y-308.788
X312.475Y-205.82
X312.699Y-277.967
X313.69Y-164.114
X313.69Y-184.588
X313.715Y-207.112
X313.715Y-263.729
X313.715Y-344.272
X314.96Y-164.515
X314.96Y-208.366
X314.96Y-222.26
X314.96Y-297.93
X314.985Y-251.857
X315.015Y-183.47
X315.214Y-277.566
X316.179Y-233.68
X316.205Y-228.651
X316.205Y-343.628
X316.235Y-293.202
X316.255Y-164.932
X317.475Y-165.333
X317.475Y-290.185
X317.5Y-172.2
X317.5Y-175.78
X317.5Y-193.01
X317.5Y-244.237
X317.5Y-251.857
X317.5Y-307.594
X317.729Y-277.098
X317.932Y-200.028
X318.745Y-205.82
X318.775Y-297.93
X318.795Y-165.745
X318.795Y-343.027
X318.821Y-275.67
X318.923Y-245.44
X319.605Y-297.132
X319.665Y-297.93
X319.812Y-298.716
X320.014Y-226.09
X320.027Y-299.487
X320.04Y-166.345
X320.04Y-179.308
X320.04Y-188.11
X320.269Y-276.697
X320.929Y-262.753
X321.107Y-181.55
X321.31Y-249.733
X321.31Y-275.051
X321.31Y-321.772
X321.462Y-218.389
X322.58Y-144.78
X322.58Y-192.29
X322.58Y-245.44
X322.682Y-182.87
X322.809Y-276.296
X323.494Y-293.202
X323.698Y-184.109
X323.875Y-192.29
X323.888Y-246.9
X323.888Y-256.426
X324.637Y-270.815
X325.095Y-179.924
X325.12Y-219.126
X325.12Y-238.496
X325.45Y-270.916
X326.422Y-180.325
X326.517Y-271.053
X327.0Y-216.281
X327.66Y-173.396
X327.66Y-233.935
X327.787Y-255.879
X328.6Y-200.628
X328.828Y-146.324
X329.032Y-249.67
X329.082Y-294.691
X329.514Y-174.558
X329.549Y-218.948
X330.022Y-266.624
X330.175Y-157.632
X330.175Y-201.228
X330.225Y-251.308
X330.289Y-247.523
X330.733Y-317.246
X331.445Y-294.665
X331.47Y-146.725
X331.775Y-283.54
X331.826Y-275.234
X332.562Y-321.172
X332.674Y-245.882
X332.715Y-157.15
X332.715Y-314.455
X332.859Y-235.136
X332.867Y-223.926
X333.172Y-262.153
X333.248Y-191.465
X333.375Y-200.914
X333.447Y-246.088
X333.46Y-233.934
X333.461Y-246.923
X333.469Y-273.8
X333.919Y-205.22
X335.28Y-197.079
X335.28Y-207.564
X335.686Y-294.462
X336.575Y-201.955
X336.575Y-235.89
X337.82Y-184.109
X337.82Y-207.564
X337.82Y-222.666
X337.82Y-253.076
X337.82Y-302.824
X337.82Y-347.37
X338.353Y-215.828
X338.566Y-294.45
X339.039Y-234.188
X339.039Y-235.204
X339.09Y-274.422
X339.561Y-185.404
X339.712Y-281.968
X340.335Y-346.743
X340.36Y-172.8
X340.36Y-185.369
X340.36Y-190.112
X340.36Y-243.83
X340.36Y-262.534
X340.385Y-251.511
X341.605Y-216.56
X341.63Y-274.35
X341.681Y-234.833
X342.798Y-174.001
X342.9Y-205.22
X342.9Y-246.9
X342.9Y-346.151
X344.145Y-196.612
X344.158Y-226.81
X344.17Y-233.172
X344.17Y-295.377
X344.195Y-298.755
X345.313Y-294.259
X345.321Y-268.234
X345.415Y-259.842
X345.415Y-345.542
X345.44Y-206.359
X345.44Y-215.337
X345.44Y-229.981
X345.44Y-251.46
X345.44Y-300.025
X345.694Y-234.401
X346.126Y-184.109
X346.177Y-223.647
X346.71Y-236.753
X346.761Y-213.122
X347.878Y-175.463
X347.955Y-260.477
X347.98Y-184.947
X347.98Y-219.685
X347.98Y-344.907
X348.005Y-320.777
X348.344Y-285.412
X349.098Y-208.366
X349.174Y-236.439
X349.25Y-274.371
X349.25Y-300.822
X350.52Y-305.852
X350.52Y-344.272
X350.521Y-302.423
X351.485Y-252.806
X351.79Y-282.69
X351.79Y-300.822
X351.892Y-259.944
X352.129Y-212.506
X353.026Y-282.69
X353.06Y-305.451
X353.06Y-343.738
X354.372Y-301.094
X355.6Y-304.952
X355.6Y-343.002
X355.749Y-233.835
X356.032Y-282.677
X356.895Y-286.121
X356.895Y-301.549
X357.017Y-190.712
X357.017Y-213.106
X357.017Y-255.295
X357.017Y-265.481
X357.2Y-271.126
X357.53Y-293.878
X357.784Y-304.902
X357.851Y-270.661
X357.966Y-174.001
X358.14Y-290.592
X358.165Y-297.911
X358.419Y-286.522
X358.618Y-269.894
X358.648Y-172.796
X358.826Y-180.144
X359.385Y-184.912
X359.495Y-284.594
X359.893Y-286.279
X359.969Y-152.984
X360.147Y-190.112
X360.297Y-197.404
X360.297Y-286.969
X360.312Y-320.535
X360.319Y-321.502
X360.465Y-290.033
X360.629Y-151.079
X360.698Y-196.612
X360.869Y-322.083
X360.959Y-183.711
X361.099Y-195.412
X361.099Y-289.357
X361.239Y-150.47
X361.449Y-322.689
X361.874Y-149.869
X362.165Y-323.176
X362.5Y-149.269
X362.808Y-323.743
X363.1Y-148.668
X363.539Y-324.219
X363.693Y-148.068
X364.258Y-324.672
X364.306Y-147.467
X364.91Y-146.867
X364.91Y-325.347
X365.51Y-213.335
X365.51Y-237.647
X365.51Y-271.729
X365.51Y-320.192
X366.11Y-152.289
X366.11Y-305.232
X366.725Y-151.679
X366.735Y-305.892
X367.284Y-338.912
X367.325Y-212.725
X367.325Y-223.071
X367.335Y-145.653
X367.335Y-267.351
X367.335Y-304.597
X367.335Y-320.792
X367.935Y-185.547
X367.935Y-222.065
X367.935Y-231.013
X367.935Y-282.727
X367.935Y-302.082
X368.503Y-306.73
X368.561Y-217.195
X368.561Y-230.388
X368.561Y-245.532
X369.154Y-269.494
X369.265Y-157.15
X369.348Y-318.613
X370.18Y-335.229
X370.84Y-324.917
X370.847Y-245.535
X371.831Y-285.013
X372.147Y-242.595
X372.147Y-263.423
X372.291Y-309.372
X372.475Y-189.31
X372.548Y-283.353
X372.548Y-290.982
X372.948Y-325.018
X373.004Y-294.025
X373.05Y-179.324
X373.073Y-238.148
X373.075Y-212.039
X373.532Y-241.554
X373.817Y-293.989
X374.091Y-325.044
X374.311Y-339.534
X374.64Y-283.353
X374.65Y-208.366
X374.65Y-242.002
X374.65Y-262.14
X374.675Y-323.647
X374.736Y-199.111
X374.853Y-167.573
X375.45Y-284.848
X375.895Y-242.611
X375.895Y-352.45
X375.971Y-246.136
X377.19Y-197.891
X377.19Y-262.14
X377.19Y-283.591
X377.19Y-321.377
X377.215Y-208.356
X377.215Y-247.345
X377.241Y-309.321
X378.409Y-254.025
X378.435Y-179.984
X378.46Y-332.867
X378.687Y-307.127
X378.714Y-323.24
X379.705Y-175.78
X379.705Y-265.532
X379.73Y-198.491
X379.73Y-208.366
X379.73Y-262.14
X379.73Y-298.511
X379.743Y-308.572
X379.781Y-321.977
X380.848Y-172.801
X381.0Y-251.79
X381.033Y-179.721
X381.178Y-254.686
X381.41Y-247.945
X381.769Y-266.751
X382.27Y-172.263
X382.27Y-262.14
X382.27Y-317.47
X382.296Y-297.21
X382.702Y-259.718
X382.905Y-316.662
X383.371Y-243.145
X383.464Y-255.295
X383.54Y-324.515
X383.565Y-344.2
X384.632Y-321.377
X384.81Y-192.29
X384.81Y-216.137
X384.81Y-262.14
X384.81Y-267.335
X385.258Y-322.577
X385.902Y-245.542
X386.08Y-260.318
X386.131Y-184.556
X386.131Y-290.982
X386.75Y-205.781
X386.75Y-250.19
X387.35Y-181.407
X387.35Y-204.521
X387.35Y-234.411
X387.35Y-244.145
X387.35Y-258.343
X387.35Y-317.424
X387.375Y-190.144
X387.375Y-266.725
X388.518Y-260.918
X388.569Y-185.141
X389.877Y-243.243
X389.89Y-174.001
X389.89Y-191.532
X389.89Y-234.417
X389.89Y-257.734
X389.915Y-205.867
X390.068Y-320.777
X391.109Y-261.518
X391.16Y-181.585
X391.16Y-199.853
X391.439Y-307.127
X391.782Y-309.994
X392.43Y-234.493
X392.43Y-238.01
X392.43Y-257.124
X392.989Y-246.177
X393.09Y-250.19
X393.675Y-265.455
X393.713Y-261.531
X394.056Y-181.016
X394.147Y-242.611
X394.656Y-186.69
X394.97Y-234.518
X394.98Y-266.106
X395.021Y-256.515
X395.021Y-271.078
X395.454Y-186.635
X395.503Y-218.948
X395.884Y-353.111
X395.935Y-214.936
X397.459Y-266.725
X397.51Y-234.493
X397.51Y-254.076
X397.535Y-229.235
X397.535Y-242.824
X397.561Y-269.85
X398.78Y-321.377
X398.831Y-338.455
X399.364Y-251.79
X399.669Y-280.67
X400.05Y-229.829
X400.05Y-234.442
X400.05Y-254.676
X400.05Y-267.335
X400.075Y-214.535
X400.152Y-339.319
X400.533Y-173.457
X400.914Y-213.944
X401.295Y-297.911
X401.307Y-236.893
X401.345Y-168.148
X402.539Y-284.988
X402.559Y-268.956
X402.565Y-242.824
X402.59Y-255.26
X403.149Y-320.853
X403.428Y-200.655
X403.784Y-251.181
X403.784Y-271.078
X403.885Y-290.144
X404.038Y-309.449
X405.13Y-255.861
X405.46Y-270.281
X405.816Y-269.357
X406.181Y-317.068
X406.197Y-284.378
X406.4Y-225.984
X406.819Y-180.175
X406.832Y-312.401
X407.441Y-325.521
X407.67Y-188.773
X407.683Y-250.228
X408.915Y-227.076
X408.927Y-246.101
X408.94Y-199.091
X408.94Y-297.911
X408.965Y-254.66
X408.971Y-283.362
X409.042Y-221.717
X409.55Y-200.523
X410.058Y-326.721
X410.21Y-151.079
X410.235Y-219.669
X411.48Y-221.539
X411.48Y-283.353
X411.531Y-198.095
X412.267Y-327.177
X412.648Y-214.503
X412.75Y-150.47
X412.775Y-208.8
X413.233Y-333.959
X414.01Y-222.123
X414.02Y-313.233
X414.045Y-198.831
X414.926Y-254.06
X414.96Y-200.924
X415.121Y-297.144
X415.239Y-149.869
X415.29Y-305.502
X415.468Y-254.651
X416.56Y-222.707
X416.976Y-323.952
X416.979Y-201.308
X417.576Y-318.821
X417.703Y-220.269
X417.812Y-149.269
X418.461Y-255.262
X419.1Y-190.144
X419.456Y-270.281
X420.345Y-156.769
X420.37Y-167.167
X421.437Y-246.913
X421.627Y-192.265
X421.64Y-190.957
X421.64Y-212.721
X421.64Y-267.335
X422.326Y-223.317
X422.91Y-321.351
X423.469Y-269.942
X423.837Y-309.537
X423.85Y-144.374
X424.18Y-188.71
X424.18Y-197.622
X424.18Y-207.457
X424.18Y-266.725
X424.206Y-233.71
X424.231Y-259.639
X425.425Y-196.784
X425.425Y-231.369
X425.45Y-281.991
X425.45Y-301.529
X425.475Y-313.233
X425.506Y-297.911
X426.695Y-224.79
X426.719Y-242.611
X426.72Y-260.35
X426.72Y-265.506
X426.745Y-294.787
X428.041Y-258.943
X429.082Y-314.122
X429.26Y-260.934
X429.26Y-266.106
X429.336Y-242.316
X430.301Y-275.692
X430.53Y-293.186
X430.555Y-316.738
X430.733Y-181.28
X431.8Y-242.951
X431.8Y-261.544
X432.445Y-293.786
X433.045Y-291.709
X433.07Y-299.907
X433.248Y-255.861
X433.832Y-345.364
X434.315Y-291.109
X434.34Y-262.14
X434.352Y-275.07
X434.509Y-304.775
X434.594Y-270.104
X435.051Y-250.171
X435.077Y-184.937
X435.077Y-244.932
X435.61Y-297.911
X436.804Y-201.299
X436.88Y-258.343
X437.718Y-185.826
X437.972Y-208.426
X438.15Y-308.559
X438.201Y-250.171
X438.319Y-267.935
X438.652Y-185.226
X438.658Y-205.22
X438.734Y-209.026
X439.334Y-209.626
X439.42Y-257.759
X441.604Y-324.587
X441.96Y-242.84
X441.96Y-257.124
X442.681Y-196.256
X442.81Y-282.143
X443.255Y-195.351
X443.255Y-323.825
X444.5Y-220.313
X444.5Y-242.243
X444.5Y-256.454
X444.783Y-223.47
X445.033Y-175.641
X445.442Y-222.996
X445.939Y-200.035
X447.002Y-241.643
X447.04Y-254.025
X447.065Y-220.913
X447.878Y-256.962
X448.141Y-283.388
X448.31Y-169.062
X448.479Y-198.79
X448.589Y-321.977
X449.224Y-322.555
X449.301Y-307.188
X449.58Y-221.599
X449.605Y-254.66
X450.681Y-283.947
X450.85Y-260.339
X451.002Y-199.39
X452.12Y-175.78
X452.12Y-255.219
X452.12Y-274.371
X452.12Y-316.128
X453.339Y-260.939
X453.415Y-168.427
X453.441Y-298.145
X454.66Y-313.233
X454.685Y-255.854
X455.828Y-229.845
X455.905Y-261.553
X457.187Y-219.291
X457.2Y-188.062
X457.2Y-275.07
X458.343Y-301.107
X458.364Y-262.14
X458.445Y-207.467
X458.546Y-316.75
X459.74Y-201.092
X459.778Y-299.377
X460.858Y-347.269
X460.985Y-201.219
X461.01Y-300.507
X461.645Y-156.718
X461.645Y-157.734
X461.645Y-158.75
X461.645Y-159.766
X462.268Y-175.78
X463.381Y-294.31
X464.092Y-324.942
X464.093Y-290.153
X464.693Y-315.29
T3
X162.56Y-186.69
X162.56Y-194.31
X173.99Y-201.93
X181.61Y-201.93
X323.85Y-198.12
X325.12Y-257.81
X325.12Y-265.43
X330.175Y-145.542
X330.175Y-153.162
X331.47Y-198.12
X332.74Y-145.542
X332.74Y-153.162
X335.28Y-145.542
X335.28Y-153.162
X337.845Y-145.542
X337.845Y-153.162
X393.7Y-158.75
X393.7Y-161.9
X397.51Y-217.17
X397.51Y-328.93
X397.51Y-336.55
X401.32Y-158.75
X401.32Y-161.9
X405.13Y-217.17
X410.26Y-328.93
X410.26Y-336.55
X419.1Y-330.2
X419.1Y-334.01
X426.72Y-330.2
X426.72Y-334.01
X444.5Y-151.13
X444.5Y-158.75
X445.77Y-325.12
X445.77Y-332.74
X466.09Y-326.39
X466.09Y-334.01
X466.09Y-337.82
X466.09Y-345.44
T4
X110.49Y-170.18
X110.49Y-177.8
X110.49Y-186.69
X110.49Y-194.31
X110.49Y-201.93
X110.49Y-217.17
X110.49Y-232.41
X110.49Y-247.65
X110.49Y-256.54
X110.49Y-264.16
X110.49Y-273.05
X110.49Y-280.67
X110.49Y-299.72
X110.49Y-307.34
X110.49Y-317.5
X110.49Y-325.12
X110.49Y-334.01
X110.49Y-341.63
X113.03Y-170.18
X113.03Y-177.8
X113.03Y-186.69
X113.03Y-194.31
X113.03Y-201.93
X113.03Y-217.17
X113.03Y-232.41
X113.03Y-247.65
X113.03Y-256.54
X113.03Y-264.16
X113.03Y-273.05
X113.03Y-280.67
X113.03Y-299.72
X113.03Y-307.34
X113.03Y-317.5
X113.03Y-325.12
X113.03Y-334.01
X113.03Y-341.63
X115.57Y-170.18
X115.57Y-177.8
X115.57Y-186.69
X115.57Y-194.31
X115.57Y-201.93
X115.57Y-217.17
X115.57Y-232.41
X115.57Y-247.65
X115.57Y-256.54
X115.57Y-264.16
X115.57Y-273.05
X115.57Y-280.67
X115.57Y-299.72
X115.57Y-307.34
X115.57Y-317.5
X115.57Y-325.12
X115.57Y-334.01
X115.57Y-341.63
X116.84Y-147.32
X116.84Y-154.94
X118.11Y-170.18
X118.11Y-177.8
X118.11Y-186.69
X118.11Y-194.31
X118.11Y-201.93
X118.11Y-217.17
X118.11Y-232.41
X118.11Y-247.65
X118.11Y-256.54
X118.11Y-264.16
X118.11Y-273.05
X118.11Y-280.67
X118.11Y-299.72
X118.11Y-307.34
X118.11Y-317.5
X118.11Y-325.12
X118.11Y-334.01
X118.11Y-341.63
X119.38Y-147.32
X119.38Y-154.94
X120.65Y-170.18
X120.65Y-177.8
X120.65Y-186.69
X120.65Y-194.31
X120.65Y-201.93
X120.65Y-217.17
X120.65Y-232.41
X120.65Y-247.65
X120.65Y-256.54
X120.65Y-264.16
X120.65Y-273.05
X120.65Y-280.67
X120.65Y-299.72
X120.65Y-307.34
X120.65Y-317.5
X120.65Y-325.12
X120.65Y-334.01
X120.65Y-341.63
X121.92Y-147.32
X121.92Y-154.94
X123.19Y-170.18
X123.19Y-177.8
X123.19Y-186.69
X123.19Y-194.31
X123.19Y-201.93
X123.19Y-217.17
X123.19Y-232.41
X123.19Y-247.65
X123.19Y-256.54
X123.19Y-264.16
X123.19Y-273.05
X123.19Y-280.67
X123.19Y-299.72
X123.19Y-307.34
X123.19Y-317.5
X123.19Y-325.12
X123.19Y-334.01
X123.19Y-341.63
X124.46Y-147.32
X124.46Y-154.94
X125.73Y-170.18
X125.73Y-177.8
X125.73Y-186.69
X125.73Y-194.31
X125.73Y-201.93
X125.73Y-217.17
X125.73Y-232.41
X125.73Y-247.65
X125.73Y-256.54
X125.73Y-264.16
X125.73Y-273.05
X125.73Y-280.67
X125.73Y-299.72
X125.73Y-307.34
X125.73Y-317.5
X125.73Y-325.12
X125.73Y-334.01
X125.73Y-341.63
X127.0Y-147.32
X127.0Y-154.94
X128.27Y-170.18
X128.27Y-177.8
X128.27Y-201.93
X128.27Y-217.17
X128.27Y-232.41
X128.27Y-247.65
X128.27Y-256.54
X128.27Y-264.16
X128.27Y-273.05
X128.27Y-280.67
X128.27Y-299.72
X128.27Y-307.34
X128.27Y-317.5
X128.27Y-325.12
X128.27Y-334.01
X128.27Y-341.63
X129.54Y-147.32
X129.54Y-154.94
X130.81Y-170.18
X130.81Y-177.8
X130.81Y-201.93
X130.81Y-217.17
X130.81Y-232.41
X130.81Y-247.65
X130.81Y-256.54
X130.81Y-264.16
X130.81Y-299.72
X130.81Y-307.34
X130.81Y-317.5
X130.81Y-325.12
X132.08Y-147.32
X132.08Y-154.94
X133.35Y-170.18
X133.35Y-177.8
X133.35Y-201.93
X133.35Y-217.17
X133.35Y-232.41
X133.35Y-247.65
X133.35Y-256.54
X133.35Y-264.16
X133.35Y-299.72
X133.35Y-307.34
X133.35Y-317.5
X133.35Y-325.12
X134.62Y-147.32
X134.62Y-154.94
X135.89Y-201.93
X135.89Y-217.17
X135.89Y-232.41
X135.89Y-247.65
X137.16Y-147.32
X137.16Y-154.94
X137.16Y-273.05
X137.16Y-280.67
X137.16Y-334.01
X137.16Y-341.63
X138.43Y-201.93
X138.43Y-217.17
X138.43Y-232.41
X138.43Y-247.65
X139.7Y-147.32
X139.7Y-154.94
X139.7Y-186.69
X139.7Y-194.31
X139.7Y-273.05
X139.7Y-280.67
X139.7Y-334.01
X139.7Y-341.63
X140.97Y-201.93
X140.97Y-217.17
X140.97Y-232.41
X140.97Y-247.65
X142.24Y-186.69
X142.24Y-194.31
X142.24Y-273.05
X142.24Y-280.67
X142.24Y-334.01
X142.24Y-341.63
X143.51Y-201.93
X143.51Y-217.17
X143.51Y-232.41
X143.51Y-247.65
X144.78Y-186.69
X144.78Y-194.31
X144.78Y-273.05
X144.78Y-280.67
X144.78Y-334.01
X144.78Y-341.63
X147.32Y-147.32
X147.32Y-154.94
X147.32Y-186.69
X147.32Y-194.31
X147.32Y-273.05
X147.32Y-280.67
X147.32Y-334.01
X147.32Y-341.63
X148.59Y-317.5
X148.59Y-325.12
X149.86Y-147.32
X149.86Y-154.94
X149.86Y-186.69
X149.86Y-194.31
X149.86Y-273.05
X149.86Y-280.67
X149.86Y-334.01
X149.86Y-341.63
X151.13Y-162.56
X151.13Y-170.18
X151.13Y-177.8
X151.13Y-205.74
X151.13Y-213.36
X151.13Y-299.72
X151.13Y-307.34
X151.13Y-317.5
X151.13Y-325.12
X152.4Y-147.32
X152.4Y-154.94
X152.4Y-186.69
X152.4Y-194.31
X152.4Y-273.05
X152.4Y-280.67
X152.4Y-334.01
X152.4Y-341.63
X153.67Y-162.56
X153.67Y-170.18
X153.67Y-177.8
X153.67Y-205.74
X153.67Y-213.36
X153.67Y-299.72
X153.67Y-307.34
X153.67Y-317.5
X153.67Y-325.12
X154.94Y-147.32
X154.94Y-154.94
X154.94Y-186.69
X154.94Y-194.31
X154.94Y-273.05
X154.94Y-280.67
X154.94Y-334.01
X154.94Y-341.63
X156.21Y-162.56
X156.21Y-170.18
X156.21Y-177.8
X156.21Y-205.74
X156.21Y-213.36
X156.21Y-299.72
X156.21Y-307.34
X156.21Y-317.5
X156.21Y-325.12
X157.48Y-147.32
X157.48Y-154.94
X158.75Y-162.56
X158.75Y-170.18
X158.75Y-177.8
X158.75Y-205.74
X158.75Y-213.36
X158.75Y-299.72
X158.75Y-307.34
X158.75Y-317.5
X158.75Y-325.12
X160.02Y-147.32
X160.02Y-154.94
X161.29Y-162.56
X161.29Y-170.18
X161.29Y-177.8
X161.29Y-205.74
X161.29Y-213.36
X161.29Y-232.41
X161.29Y-247.65
X161.29Y-299.72
X161.29Y-307.34
X161.29Y-317.5
X161.29Y-325.12
X162.56Y-147.32
X162.56Y-154.94
X163.83Y-162.56
X163.83Y-170.18
X163.83Y-177.8
X163.83Y-205.74
X163.83Y-213.36
X163.83Y-232.41
X163.83Y-247.65
X163.83Y-273.05
X163.83Y-280.67
X163.83Y-299.72
X163.83Y-307.34
X163.83Y-317.5
X163.83Y-325.12
X163.83Y-334.01
X163.83Y-341.63
X165.1Y-147.32
X165.1Y-154.94
X166.37Y-162.56
X166.37Y-170.18
X166.37Y-177.8
X166.37Y-205.74
X166.37Y-213.36
X166.37Y-232.41
X166.37Y-247.65
X166.37Y-256.54
X166.37Y-264.16
X166.37Y-273.05
X166.37Y-280.67
X166.37Y-299.72
X166.37Y-307.34
X166.37Y-317.5
X166.37Y-325.12
X166.37Y-334.01
X166.37Y-341.63
X167.64Y-147.32
X167.64Y-154.94
X168.91Y-162.56
X168.91Y-170.18
X168.91Y-177.8
X168.91Y-186.69
X168.91Y-194.31
X168.91Y-205.74
X168.91Y-213.36
X168.91Y-232.41
X168.91Y-247.65
X168.91Y-256.54
X168.91Y-264.16
X168.91Y-273.05
X168.91Y-280.67
X168.91Y-299.72
X168.91Y-307.34
X168.91Y-317.5
X168.91Y-325.12
X168.91Y-334.01
X168.91Y-341.63
X170.18Y-147.32
X170.18Y-154.94
X171.45Y-162.56
X171.45Y-170.18
X171.45Y-177.8
X171.45Y-186.69
X171.45Y-194.31
X171.45Y-205.74
X171.45Y-213.36
X171.45Y-232.41
X171.45Y-247.65
X171.45Y-256.54
X171.45Y-264.16
X171.45Y-273.05
X171.45Y-280.67
X171.45Y-299.72
X171.45Y-307.34
X171.45Y-317.5
X171.45Y-325.12
X171.45Y-334.01
X171.45Y-341.63
X173.99Y-170.18
X173.99Y-177.8
X173.99Y-186.69
X173.99Y-194.31
X173.99Y-205.74
X173.99Y-213.36
X173.99Y-232.41
X173.99Y-247.65
X173.99Y-256.54
X173.99Y-264.16
X173.99Y-273.05
X173.99Y-280.67
X173.99Y-299.72
X173.99Y-307.34
X173.99Y-334.01
X173.99Y-341.63
X176.53Y-186.69
X176.53Y-194.31
X176.53Y-232.41
X176.53Y-247.65
X176.53Y-256.54
X176.53Y-264.16
X176.53Y-273.05
X176.53Y-280.67
X176.53Y-334.01
X176.53Y-341.63
X177.8Y-147.32
X177.8Y-154.94
X179.07Y-186.69
X179.07Y-194.31
X179.07Y-232.41
X179.07Y-247.65
X179.07Y-256.54
X179.07Y-264.16
X179.07Y-273.05
X179.07Y-280.67
X179.07Y-334.01
X179.07Y-341.63
X180.34Y-147.32
X180.34Y-154.94
X181.61Y-186.69
X181.61Y-194.31
X181.61Y-205.74
X181.61Y-213.36
X181.61Y-232.41
X181.61Y-247.65
X181.61Y-256.54
X181.61Y-264.16
X181.61Y-273.05
X181.61Y-280.67
X181.61Y-334.01
X181.61Y-341.63
X182.88Y-147.32
X182.88Y-154.94
X182.88Y-162.56
X184.15Y-186.69
X184.15Y-194.31
X184.15Y-205.74
X184.15Y-213.36
X184.15Y-232.41
X184.15Y-247.65
X184.15Y-256.54
X184.15Y-264.16
X185.42Y-147.32
X185.42Y-154.94
X185.42Y-162.56
X185.42Y-317.5
X185.42Y-325.12
X186.69Y-170.18
X186.69Y-177.8
X186.69Y-205.74
X186.69Y-213.36
X186.69Y-232.41
X186.69Y-247.65
X186.69Y-256.54
X186.69Y-264.16
X187.96Y-147.32
X187.96Y-154.94
X187.96Y-162.56
X187.96Y-317.5
X187.96Y-325.12
X189.23Y-170.18
X189.23Y-177.8
X189.23Y-205.74
X189.23Y-213.36
X189.23Y-232.41
X189.23Y-247.65
X189.23Y-256.54
X189.23Y-264.16
X189.23Y-299.72
X189.23Y-307.34
X190.5Y-147.32
X190.5Y-154.94
X190.5Y-162.56
X190.5Y-273.05
X190.5Y-280.67
X190.5Y-317.5
X190.5Y-325.12
X190.5Y-334.01
X190.5Y-341.63
X191.77Y-170.18
X191.77Y-177.8
X191.77Y-205.74
X191.77Y-213.36
X191.77Y-232.41
X191.77Y-247.65
X191.77Y-299.72
X191.77Y-307.34
X193.04Y-147.32
X193.04Y-154.94
X193.04Y-162.56
X193.04Y-186.69
X193.04Y-194.31
X193.04Y-273.05
X193.04Y-280.67
X193.04Y-317.5
X193.04Y-325.12
X193.04Y-334.01
X193.04Y-341.63
X194.31Y-170.18
X194.31Y-177.8
X194.31Y-205.74
X194.31Y-213.36
X194.31Y-232.41
X194.31Y-247.65
X194.31Y-299.72
X194.31Y-307.34
X195.58Y-162.56
X195.58Y-186.69
X195.58Y-194.31
X195.58Y-273.05
X195.58Y-280.67
X195.58Y-317.5
X195.58Y-325.12
X195.58Y-334.01
X195.58Y-341.63
X196.85Y-170.18
X196.85Y-177.8
X196.85Y-205.74
X196.85Y-213.36
X196.85Y-232.41
X196.85Y-247.65
X196.85Y-299.72
X196.85Y-307.34
X198.12Y-162.56
X198.12Y-186.69
X198.12Y-194.31
X198.12Y-273.05
X198.12Y-280.67
X198.12Y-317.5
X198.12Y-325.12
X198.12Y-334.01
X198.12Y-341.63
X199.39Y-170.18
X199.39Y-177.8
X199.39Y-205.74
X199.39Y-213.36
X199.39Y-232.41
X199.39Y-247.65
X199.39Y-299.72
X199.39Y-307.34
X200.66Y-147.32
X200.66Y-154.94
X200.66Y-162.56
X200.66Y-186.69
X200.66Y-194.31
X200.66Y-273.05
X200.66Y-280.67
X200.66Y-317.5
X200.66Y-325.12
X200.66Y-334.01
X200.66Y-341.63
X201.93Y-170.18
X201.93Y-177.8
X201.93Y-205.74
X201.93Y-213.36
X201.93Y-299.72
X201.93Y-307.34
X203.2Y-147.32
X203.2Y-154.94
X203.2Y-162.56
X203.2Y-186.69
X203.2Y-194.31
X203.2Y-273.05
X203.2Y-280.67
X203.2Y-317.5
X203.2Y-325.12
X203.2Y-334.01
X203.2Y-341.63
X204.47Y-170.18
X204.47Y-177.8
X204.47Y-205.74
X204.47Y-213.36
X204.47Y-299.72
X204.47Y-307.34
X205.74Y-147.32
X205.74Y-154.94
X205.74Y-186.69
X205.74Y-194.31
X205.74Y-273.05
X205.74Y-280.67
X205.74Y-317.5
X205.74Y-325.12
X205.74Y-334.01
X205.74Y-341.63
X208.28Y-147.32
X208.28Y-154.94
X208.28Y-186.69
X208.28Y-194.31
X208.28Y-273.05
X208.28Y-280.67
X208.28Y-317.5
X208.28Y-325.12
X208.28Y-334.01
X208.28Y-341.63
X210.82Y-147.32
X210.82Y-154.94
X213.36Y-147.32
X213.36Y-154.94
X215.9Y-147.32
X215.9Y-154.94
X226.06Y-299.72
X226.06Y-307.34
X226.06Y-317.5
X226.06Y-325.12
X226.06Y-334.01
X226.06Y-341.63
X227.33Y-273.05
X227.33Y-280.67
X228.6Y-299.72
X228.6Y-307.34
X228.6Y-317.5
X228.6Y-325.12
X228.6Y-334.01
X228.6Y-341.63
X229.87Y-257.81
X229.87Y-265.43
X229.87Y-273.05
X229.87Y-280.67
X231.14Y-217.17
X231.14Y-299.72
X231.14Y-307.34
X231.14Y-317.5
X231.14Y-325.12
X231.14Y-334.01
X231.14Y-341.63
X232.41Y-224.79
X232.41Y-232.41
X232.41Y-241.3
X232.41Y-248.92
X232.41Y-257.81
X232.41Y-265.43
X232.41Y-273.05
X232.41Y-280.67
X233.68Y-170.18
X233.68Y-177.8
X233.68Y-186.69
X233.68Y-194.31
X233.68Y-203.2
X233.68Y-210.82
X233.68Y-217.17
X233.68Y-299.72
X233.68Y-307.34
X233.68Y-317.5
X233.68Y-325.12
X233.68Y-334.01
X233.68Y-341.63
X234.95Y-224.79
X234.95Y-232.41
X234.95Y-241.3
X234.95Y-248.92
X234.95Y-257.81
X234.95Y-265.43
X234.95Y-273.05
X234.95Y-280.67
X236.22Y-170.18
X236.22Y-177.8
X236.22Y-186.69
X236.22Y-194.31
X236.22Y-203.2
X236.22Y-210.82
X236.22Y-217.17
X236.22Y-299.72
X236.22Y-307.34
X236.22Y-317.5
X236.22Y-325.12
X236.22Y-334.01
X236.22Y-341.63
X237.49Y-224.79
X237.49Y-232.41
X237.49Y-241.3
X237.49Y-248.92
X237.49Y-257.81
X237.49Y-265.43
X237.49Y-273.05
X237.49Y-280.67
X238.76Y-170.18
X238.76Y-177.8
X238.76Y-186.69
X238.76Y-194.31
X238.76Y-203.2
X238.76Y-210.82
X238.76Y-217.17
X238.76Y-299.72
X238.76Y-307.34
X238.76Y-317.5
X238.76Y-325.12
X238.76Y-334.01
X238.76Y-341.63
X240.03Y-224.79
X240.03Y-232.41
X240.03Y-241.3
X240.03Y-248.92
X240.03Y-257.81
X240.03Y-265.43
X240.03Y-273.05
X240.03Y-280.67
X241.3Y-170.18
X241.3Y-177.8
X241.3Y-186.69
X241.3Y-194.31
X241.3Y-203.2
X241.3Y-210.82
X241.3Y-217.17
X241.3Y-299.72
X241.3Y-307.34
X241.3Y-317.5
X241.3Y-325.12
X241.3Y-334.01
X241.3Y-341.63
X242.57Y-224.79
X242.57Y-232.41
X242.57Y-241.3
X242.57Y-248.92
X242.57Y-257.81
X242.57Y-265.43
X242.57Y-273.05
X242.57Y-280.67
X243.84Y-170.18
X243.84Y-177.8
X243.84Y-186.69
X243.84Y-194.31
X243.84Y-203.2
X243.84Y-210.82
X243.84Y-217.17
X243.84Y-299.72
X243.84Y-307.34
X243.84Y-317.5
X243.84Y-325.12
X243.84Y-334.01
X243.84Y-341.63
X245.11Y-224.79
X245.11Y-232.41
X245.11Y-241.3
X245.11Y-248.92
X245.11Y-257.81
X245.11Y-265.43
X245.11Y-273.05
X245.11Y-280.67
X246.38Y-170.18
X246.38Y-177.8
X246.38Y-186.69
X246.38Y-194.31
X246.38Y-203.2
X246.38Y-210.82
X246.38Y-217.17
X246.38Y-299.72
X246.38Y-307.34
X246.38Y-317.5
X246.38Y-325.12
X246.38Y-334.01
X246.38Y-341.63
X247.65Y-224.79
X247.65Y-232.41
X247.65Y-241.3
X247.65Y-248.92
X247.65Y-273.05
X247.65Y-280.67
X248.92Y-170.18
X248.92Y-177.8
X248.92Y-186.69
X248.92Y-194.31
X248.92Y-203.2
X248.92Y-210.82
X248.92Y-217.17
X248.92Y-299.72
X248.92Y-307.34
X248.92Y-317.5
X248.92Y-325.12
X248.92Y-334.01
X248.92Y-341.63
X250.19Y-273.05
X250.19Y-280.67
X251.46Y-203.2
X251.46Y-210.82
X251.46Y-217.17
X255.27Y-241.3
X255.27Y-248.92
X255.27Y-257.81
X255.27Y-265.43
X257.81Y-224.79
X257.81Y-232.41
X257.81Y-241.3
X257.81Y-248.92
X257.81Y-257.81
X257.81Y-265.43
X260.35Y-170.18
X260.35Y-177.8
X260.35Y-186.69
X260.35Y-194.31
X260.35Y-224.79
X260.35Y-232.41
X260.35Y-241.3
X260.35Y-248.92
X260.35Y-257.81
X260.35Y-265.43
X261.62Y-317.5
X261.62Y-325.12
X261.62Y-334.01
X261.62Y-341.63
X262.89Y-170.18
X262.89Y-177.8
X262.89Y-186.69
X262.89Y-194.31
X262.89Y-224.79
X262.89Y-232.41
X262.89Y-241.3
X262.89Y-248.92
X262.89Y-257.81
X262.89Y-265.43
X264.16Y-299.72
X264.16Y-307.34
X264.16Y-317.5
X264.16Y-325.12
X264.16Y-334.01
X264.16Y-341.63
X265.43Y-170.18
X265.43Y-177.8
X265.43Y-186.69
X265.43Y-194.31
X265.43Y-224.79
X265.43Y-232.41
X265.43Y-241.3
X265.43Y-248.92
X265.43Y-257.81
X265.43Y-265.43
X266.7Y-299.72
X266.7Y-307.34
X266.7Y-317.5
X266.7Y-325.12
X266.7Y-334.01
X266.7Y-341.63
X267.97Y-170.18
X267.97Y-177.8
X267.97Y-186.69
X267.97Y-194.31
X267.97Y-203.2
X267.97Y-210.82
X267.97Y-224.79
X267.97Y-232.41
X267.97Y-241.3
X267.97Y-248.92
X267.97Y-257.81
X267.97Y-265.43
X267.97Y-273.05
X267.97Y-280.67
X269.24Y-299.72
X269.24Y-307.34
X269.24Y-317.5
X269.24Y-325.12
X269.24Y-334.01
X269.24Y-341.63
X270.51Y-170.18
X270.51Y-177.8
X270.51Y-186.69
X270.51Y-194.31
X270.51Y-203.2
X270.51Y-210.82
X270.51Y-224.79
X270.51Y-232.41
X270.51Y-241.3
X270.51Y-248.92
X270.51Y-257.81
X270.51Y-265.43
X270.51Y-273.05
X270.51Y-280.67
X271.78Y-299.72
X271.78Y-307.34
X271.78Y-317.5
X271.78Y-325.12
X271.78Y-334.01
X271.78Y-341.63
X273.05Y-170.18
X273.05Y-177.8
X273.05Y-186.69
X273.05Y-194.31
X273.05Y-203.2
X273.05Y-210.82
X273.05Y-224.79
X273.05Y-232.41
X273.05Y-241.3
X273.05Y-248.92
X273.05Y-273.05
X273.05Y-280.67
X274.32Y-299.72
X274.32Y-307.34
X274.32Y-317.5
X274.32Y-325.12
X274.32Y-334.01
X274.32Y-341.63
X275.59Y-170.18
X275.59Y-177.8
X275.59Y-186.69
X275.59Y-194.31
X275.59Y-203.2
X275.59Y-210.82
X275.59Y-273.05
X275.59Y-280.67
X276.86Y-299.72
X276.86Y-307.34
X276.86Y-317.5
X276.86Y-325.12
X276.86Y-334.01
X276.86Y-341.63
X278.13Y-170.18
X278.13Y-177.8
X278.13Y-203.2
X278.13Y-210.82
X278.13Y-273.05
X278.13Y-280.67
X279.4Y-299.72
X279.4Y-307.34
X279.4Y-317.5
X279.4Y-325.12
X279.4Y-334.01
X279.4Y-341.63
X280.67Y-203.2
X280.67Y-210.82
X280.67Y-273.05
X280.67Y-280.67
X281.94Y-257.81
X281.94Y-265.43
X281.94Y-317.5
X281.94Y-325.12
X281.94Y-334.01
X281.94Y-341.63
X283.21Y-203.2
X283.21Y-210.82
X283.21Y-273.05
X283.21Y-280.67
X284.48Y-257.81
X284.48Y-265.43
X284.48Y-317.5
X284.48Y-325.12
X284.48Y-334.01
X284.48Y-341.63
X285.75Y-203.2
X285.75Y-210.82
X287.02Y-170.18
X287.02Y-177.8
X287.02Y-186.69
X287.02Y-194.31
X287.02Y-224.79
X287.02Y-232.41
X287.02Y-241.3
X287.02Y-248.92
X287.02Y-257.81
X287.02Y-265.43
X288.29Y-203.2
X288.29Y-210.82
X289.56Y-170.18
X289.56Y-177.8
X289.56Y-186.69
X289.56Y-194.31
X289.56Y-224.79
X289.56Y-232.41
X289.56Y-241.3
X289.56Y-248.92
X289.56Y-257.81
X289.56Y-265.43
X290.83Y-203.2
X290.83Y-210.82
X290.835Y-295.91
X290.835Y-311.15
X292.1Y-170.18
X292.1Y-177.8
X292.1Y-186.69
X292.1Y-194.31
X292.1Y-224.79
X292.1Y-232.41
X292.1Y-241.3
X292.1Y-248.92
X292.1Y-257.81
X292.1Y-265.43
X293.375Y-295.91
X293.375Y-311.15
X294.64Y-170.18
X294.64Y-177.8
X294.64Y-186.69
X294.64Y-194.31
X294.64Y-224.79
X294.64Y-232.41
X294.64Y-241.3
X294.64Y-248.92
X294.64Y-257.81
X294.64Y-265.43
X295.915Y-295.91
X295.915Y-311.15
X297.18Y-170.18
X297.18Y-177.8
X297.18Y-186.69
X297.18Y-194.31
X297.18Y-224.79
X297.18Y-232.41
X297.18Y-241.3
X297.18Y-248.92
X297.18Y-257.81
X297.18Y-265.43
X298.45Y-318.77
X298.45Y-326.39
X298.45Y-334.01
X298.45Y-341.63
X298.455Y-295.91
X298.455Y-311.15
X299.72Y-170.18
X299.72Y-177.8
X299.72Y-186.69
X299.72Y-194.31
X299.72Y-224.79
X299.72Y-232.41
X299.72Y-241.3
X299.72Y-248.92
X299.72Y-273.05
X299.72Y-280.67
X300.99Y-318.77
X300.99Y-326.39
X300.99Y-334.01
X300.99Y-341.63
X300.995Y-295.91
X300.995Y-311.15
X302.26Y-170.18
X302.26Y-177.8
X302.26Y-186.69
X302.26Y-194.31
X302.26Y-224.79
X302.26Y-232.41
X302.26Y-241.3
X302.26Y-248.92
X302.26Y-273.05
X302.26Y-280.67
X303.53Y-318.77
X303.53Y-326.39
X303.53Y-334.01
X303.53Y-341.63
X303.535Y-295.91
X303.535Y-311.15
X304.8Y-224.79
X304.8Y-232.41
X304.8Y-241.3
X304.8Y-248.92
X304.8Y-273.05
X304.8Y-280.67
X306.07Y-257.81
X306.07Y-265.43
X306.07Y-318.77
X306.07Y-326.39
X306.07Y-334.01
X306.07Y-341.63
X306.075Y-295.91
X306.075Y-311.15
X307.34Y-273.05
X307.34Y-280.67
X308.61Y-203.2
X308.61Y-210.82
X308.61Y-257.81
X308.61Y-265.43
X308.61Y-318.77
X308.61Y-326.39
X308.61Y-334.01
X308.61Y-341.63
X308.615Y-295.91
X308.615Y-311.15
X309.88Y-273.05
X309.88Y-280.67
X311.15Y-203.2
X311.15Y-210.82
X311.15Y-257.81
X311.15Y-265.43
X311.15Y-318.77
X311.15Y-326.39
X311.15Y-334.01
X311.15Y-341.63
X311.155Y-295.91
X311.155Y-311.15
X312.42Y-170.18
X312.42Y-177.8
X312.42Y-186.69
X312.42Y-194.31
X312.42Y-224.79
X312.42Y-232.41
X312.42Y-241.3
X312.42Y-248.92
X312.42Y-273.05
X312.42Y-280.67
X313.69Y-203.2
X313.69Y-210.82
X313.69Y-257.81
X313.69Y-265.43
X313.69Y-318.77
X313.69Y-326.39
X313.69Y-334.01
X313.69Y-341.63
X313.695Y-295.91
X313.695Y-311.15
X314.96Y-170.18
X314.96Y-177.8
X314.96Y-186.69
X314.96Y-194.31
X314.96Y-224.79
X314.96Y-232.41
X314.96Y-241.3
X314.96Y-248.92
X314.96Y-273.05
X314.96Y-280.67
X316.23Y-203.2
X316.23Y-210.82
X316.23Y-257.81
X316.23Y-265.43
X316.23Y-318.77
X316.23Y-326.39
X316.23Y-334.01
X316.23Y-341.63
X316.235Y-295.91
X316.235Y-311.15
X317.5Y-170.18
X317.5Y-177.8
X317.5Y-186.69
X317.5Y-194.31
X317.5Y-224.79
X317.5Y-232.41
X317.5Y-241.3
X317.5Y-248.92
X317.5Y-273.05
X317.5Y-280.67
X318.77Y-203.2
X318.77Y-210.82
X318.77Y-257.81
X318.77Y-265.43
X318.77Y-318.77
X318.77Y-326.39
X318.77Y-334.01
X318.77Y-341.63
X318.775Y-295.91
X318.775Y-311.15
X320.04Y-170.18
X320.04Y-177.8
X320.04Y-186.69
X320.04Y-194.31
X320.04Y-224.79
X320.04Y-232.41
X320.04Y-241.3
X320.04Y-248.92
X320.04Y-273.05
X320.04Y-280.67
X321.31Y-203.2
X321.31Y-210.82
X321.31Y-257.81
X321.31Y-265.43
X321.31Y-318.77
X321.31Y-326.39
X321.31Y-334.01
X321.31Y-341.63
X322.58Y-170.18
X322.58Y-177.8
X322.58Y-186.69
X322.58Y-194.31
X322.58Y-224.79
X322.58Y-232.41
X322.58Y-241.3
X322.58Y-248.92
X322.58Y-273.05
X322.58Y-280.67
X323.85Y-203.2
X323.85Y-210.82
X325.12Y-170.18
X325.12Y-177.8
X325.12Y-186.69
X325.12Y-194.31
X325.12Y-224.79
X325.12Y-232.41
X325.12Y-241.3
X325.12Y-248.92
X327.66Y-170.18
X327.66Y-177.8
X327.66Y-186.69
X327.66Y-194.31
X327.66Y-224.79
X327.66Y-232.41
X327.66Y-241.3
X327.66Y-248.92
X330.2Y-295.91
X330.2Y-311.15
X332.74Y-295.91
X332.74Y-311.15
X334.01Y-284.48
X335.28Y-170.18
X335.28Y-177.8
X335.28Y-186.69
X335.28Y-194.31
X335.28Y-203.2
X335.28Y-210.82
X335.28Y-224.79
X335.28Y-232.41
X335.28Y-241.3
X335.28Y-248.92
X335.28Y-257.81
X335.28Y-265.43
X335.28Y-295.91
X335.28Y-311.15
X335.28Y-318.77
X335.28Y-326.39
X335.28Y-334.01
X335.28Y-341.63
X336.55Y-284.48
X337.82Y-170.18
X337.82Y-177.8
X337.82Y-186.69
X337.82Y-194.31
X337.82Y-203.2
X337.82Y-210.82
X337.82Y-224.79
X337.82Y-232.41
X337.82Y-241.3
X337.82Y-248.92
X337.82Y-257.81
X337.82Y-265.43
X337.82Y-295.91
X337.82Y-311.15
X337.82Y-318.77
X337.82Y-326.39
X337.82Y-334.01
X337.82Y-341.63
X339.09Y-273.05
X339.09Y-280.67
X339.09Y-284.48
X340.36Y-170.18
X340.36Y-177.8
X340.36Y-186.69
X340.36Y-194.31
X340.36Y-203.2
X340.36Y-210.82
X340.36Y-224.79
X340.36Y-232.41
X340.36Y-241.3
X340.36Y-248.92
X340.36Y-257.81
X340.36Y-265.43
X340.36Y-295.91
X340.36Y-311.15
X340.36Y-318.77
X340.36Y-326.39
X340.36Y-334.01
X340.36Y-341.63
X341.63Y-273.05
X341.63Y-280.67
X341.63Y-284.48
X342.9Y-170.18
X342.9Y-177.8
X342.9Y-186.69
X342.9Y-194.31
X342.9Y-203.2
X342.9Y-210.82
X342.9Y-224.79
X342.9Y-232.41
X342.9Y-241.3
X342.9Y-248.92
X342.9Y-257.81
X342.9Y-265.43
X342.9Y-295.91
X342.9Y-311.15
X342.9Y-318.77
X342.9Y-326.39
X342.9Y-334.01
X342.9Y-341.63
X344.17Y-273.05
X344.17Y-280.67
X344.17Y-284.48
X345.44Y-170.18
X345.44Y-177.8
X345.44Y-186.69
X345.44Y-194.31
X345.44Y-203.2
X345.44Y-210.82
X345.44Y-224.79
X345.44Y-232.41
X345.44Y-241.3
X345.44Y-248.92
X345.44Y-257.81
X345.44Y-265.43
X345.44Y-295.91
X345.44Y-311.15
X345.44Y-318.77
X345.44Y-326.39
X345.44Y-334.01
X345.44Y-341.63
X346.71Y-273.05
X346.71Y-280.67
X346.71Y-284.48
X347.98Y-170.18
X347.98Y-177.8
X347.98Y-186.69
X347.98Y-194.31
X347.98Y-203.2
X347.98Y-210.82
X347.98Y-224.79
X347.98Y-232.41
X347.98Y-241.3
X347.98Y-248.92
X347.98Y-257.81
X347.98Y-265.43
X347.98Y-295.91
X347.98Y-311.15
X347.98Y-318.77
X347.98Y-326.39
X347.98Y-334.01
X347.98Y-341.63
X349.25Y-273.05
X349.25Y-280.67
X349.25Y-284.48
X350.52Y-170.18
X350.52Y-177.8
X350.52Y-186.69
X350.52Y-194.31
X350.52Y-203.2
X350.52Y-210.82
X350.52Y-224.79
X350.52Y-232.41
X350.52Y-241.3
X350.52Y-248.92
X350.52Y-257.81
X350.52Y-265.43
X350.52Y-295.91
X350.52Y-311.15
X350.52Y-318.77
X350.52Y-326.39
X350.52Y-334.01
X350.52Y-341.63
X351.79Y-273.05
X351.79Y-280.67
X351.79Y-284.48
X353.06Y-295.91
X353.06Y-311.15
X353.06Y-318.77
X353.06Y-326.39
X353.06Y-334.01
X353.06Y-341.63
X354.33Y-273.05
X354.33Y-280.67
X354.33Y-284.48
X355.6Y-295.91
X355.6Y-311.15
X355.6Y-318.77
X355.6Y-326.39
X355.6Y-334.01
X355.6Y-341.63
X358.14Y-295.91
X358.14Y-311.15
X358.14Y-318.77
X358.14Y-326.39
X358.14Y-334.01
X358.14Y-341.63
X374.65Y-170.18
X374.65Y-177.8
X374.65Y-186.69
X374.65Y-194.31
X374.65Y-203.2
X374.65Y-210.82
X374.65Y-232.41
X374.65Y-240.03
X374.65Y-248.92
X374.65Y-264.16
X374.65Y-273.05
X374.65Y-280.67
X374.65Y-295.91
X374.65Y-303.53
X374.65Y-311.15
X374.65Y-318.77
X374.83Y-162.56
X375.92Y-327.66
X375.92Y-335.28
X375.92Y-342.9
X375.92Y-350.52
X377.19Y-170.18
X377.19Y-177.8
X377.19Y-186.69
X377.19Y-194.31
X377.19Y-203.2
X377.19Y-210.82
X377.19Y-232.41
X377.19Y-240.03
X377.19Y-248.92
X377.19Y-264.16
X377.19Y-273.05
X377.19Y-280.67
X377.19Y-295.91
X377.19Y-303.53
X377.19Y-311.15
X377.19Y-318.77
X378.46Y-327.66
X378.46Y-335.28
X378.46Y-342.9
X378.46Y-350.52
X379.73Y-162.56
X379.73Y-170.18
X379.73Y-177.8
X379.73Y-186.69
X379.73Y-194.31
X379.73Y-203.2
X379.73Y-210.82
X379.73Y-232.41
X379.73Y-240.03
X379.73Y-248.92
X379.73Y-264.16
X379.73Y-273.05
X379.73Y-280.67
X379.73Y-295.91
X379.73Y-303.53
X379.73Y-311.15
X379.73Y-318.77
X381.0Y-327.66
X381.0Y-335.28
X381.0Y-342.9
X381.0Y-350.52
X382.27Y-170.18
X382.27Y-177.8
X382.27Y-186.69
X382.27Y-194.31
X382.27Y-203.2
X382.27Y-210.82
X382.27Y-232.41
X382.27Y-240.03
X382.27Y-248.92
X382.27Y-264.16
X382.27Y-273.05
X382.27Y-280.67
X382.27Y-295.91
X382.27Y-303.53
X382.27Y-311.15
X382.27Y-318.77
X383.54Y-327.66
X383.54Y-335.28
X383.54Y-342.9
X383.54Y-350.52
X384.81Y-170.18
X384.81Y-177.8
X384.81Y-186.69
X384.81Y-194.31
X384.81Y-203.2
X384.81Y-210.82
X384.81Y-232.41
X384.81Y-240.03
X384.81Y-248.92
X384.81Y-264.16
X384.81Y-273.05
X384.81Y-280.67
X384.81Y-295.91
X384.81Y-303.53
X384.81Y-311.15
X384.81Y-318.77
X386.08Y-327.66
X386.08Y-335.28
X386.08Y-342.9
X386.08Y-350.52
X386.16Y-158.51
X386.16Y-162.56
X387.35Y-170.18
X387.35Y-177.8
X387.35Y-186.69
X387.35Y-194.31
X387.35Y-203.2
X387.35Y-210.82
X387.35Y-232.41
X387.35Y-240.03
X387.35Y-248.92
X387.35Y-264.16
X387.35Y-273.05
X387.35Y-280.67
X387.35Y-295.91
X387.35Y-303.53
X387.35Y-311.15
X387.35Y-318.77
X388.62Y-327.66
X388.62Y-335.28
X388.62Y-342.9
X388.62Y-350.52
X389.89Y-170.18
X389.89Y-177.8
X389.89Y-186.69
X389.89Y-194.31
X389.89Y-203.2
X389.89Y-210.82
X389.89Y-232.41
X389.89Y-240.03
X389.89Y-248.92
X389.89Y-264.16
X389.89Y-273.05
X389.89Y-280.67
X389.89Y-295.91
X389.89Y-303.53
X389.89Y-311.15
X389.89Y-318.77
X391.16Y-158.51
X391.16Y-162.56
X391.16Y-327.66
X391.16Y-335.28
X391.16Y-342.9
X391.16Y-350.52
X392.43Y-186.69
X392.43Y-194.31
X392.43Y-203.2
X392.43Y-210.82
X392.43Y-232.41
X392.43Y-240.03
X392.43Y-248.92
X392.43Y-264.16
X392.43Y-273.05
X392.43Y-280.67
X394.97Y-232.41
X394.97Y-240.03
X394.97Y-248.92
X394.97Y-264.16
X394.97Y-273.05
X394.97Y-280.67
X397.51Y-232.41
X397.51Y-240.03
X397.51Y-248.92
X397.51Y-264.16
X397.51Y-273.05
X397.51Y-280.67
X398.78Y-295.91
X398.78Y-303.53
X398.78Y-311.15
X398.78Y-318.77
X400.05Y-232.41
X400.05Y-240.03
X400.05Y-248.92
X400.05Y-264.16
X401.32Y-295.91
X401.32Y-303.53
X401.32Y-311.15
X401.32Y-318.77
X401.32Y-330.2
X401.32Y-335.2
X402.59Y-232.41
X402.59Y-240.03
X402.59Y-248.92
X402.59Y-264.16
X402.59Y-339.005
X403.86Y-295.91
X403.86Y-303.53
X403.86Y-311.15
X403.86Y-318.77
X405.13Y-147.32
X405.13Y-162.56
X405.13Y-248.92
X405.13Y-264.16
X405.22Y-330.12
X405.22Y-335.12
X406.4Y-295.91
X406.4Y-303.53
X406.4Y-311.15
X406.4Y-318.77
X407.49Y-339.005
X407.67Y-147.32
X407.67Y-162.56
X407.67Y-170.18
X407.67Y-177.8
X407.67Y-248.92
X407.67Y-264.16
X408.94Y-186.69
X408.94Y-194.31
X408.94Y-203.2
X408.94Y-210.82
X408.94Y-295.91
X408.94Y-303.53
X408.94Y-311.15
X408.94Y-318.77
X410.21Y-147.32
X410.21Y-162.56
X410.21Y-170.18
X410.21Y-177.8
X410.21Y-248.92
X410.21Y-264.16
X411.48Y-186.69
X411.48Y-194.31
X411.48Y-203.2
X411.48Y-210.82
X411.48Y-273.05
X411.48Y-280.67
X411.48Y-295.91
X411.48Y-303.53
X411.48Y-311.15
X411.48Y-318.77
X412.75Y-147.32
X412.75Y-162.56
X412.75Y-170.18
X412.75Y-177.8
X412.75Y-248.92
X412.75Y-264.16
X414.02Y-186.69
X414.02Y-194.31
X414.02Y-203.2
X414.02Y-210.82
X414.02Y-273.05
X414.02Y-280.67
X414.02Y-295.91
X414.02Y-303.53
X414.02Y-311.15
X414.02Y-318.77
X415.29Y-147.32
X415.29Y-162.56
X415.29Y-170.18
X415.29Y-177.8
X416.56Y-186.69
X416.56Y-194.31
X416.56Y-203.2
X416.56Y-210.82
X416.56Y-232.41
X416.56Y-240.03
X416.56Y-273.05
X416.56Y-280.67
X417.83Y-147.32
X417.83Y-162.56
X417.83Y-170.18
X417.83Y-177.8
X419.1Y-186.69
X419.1Y-194.31
X419.1Y-203.2
X419.1Y-210.82
X419.1Y-232.41
X419.1Y-240.03
X419.1Y-273.05
X419.1Y-280.67
X419.14Y-337.74
X419.14Y-345.36
X420.37Y-147.32
X420.37Y-162.56
X420.37Y-170.18
X420.37Y-177.8
X421.64Y-186.69
X421.64Y-194.31
X421.64Y-203.2
X421.64Y-210.82
X421.64Y-232.41
X421.64Y-240.03
X421.64Y-273.05
X421.64Y-280.67
X421.68Y-337.74
X421.68Y-345.36
X422.91Y-147.32
X422.91Y-162.56
X422.91Y-170.18
X422.91Y-177.8
X422.91Y-295.91
X422.91Y-303.53
X422.91Y-311.15
X422.91Y-318.77
X424.18Y-186.69
X424.18Y-194.31
X424.18Y-203.2
X424.18Y-210.82
X424.18Y-232.41
X424.18Y-240.03
X424.18Y-248.92
X424.18Y-264.16
X424.18Y-273.05
X424.18Y-280.67
X424.22Y-337.74
X424.22Y-345.36
X425.45Y-147.32
X425.45Y-162.56
X425.45Y-295.91
X425.45Y-303.53
X425.45Y-311.15
X425.45Y-318.77
X426.72Y-186.69
X426.72Y-194.31
X426.72Y-203.2
X426.72Y-210.82
X426.72Y-232.41
X426.72Y-240.03
X426.72Y-248.92
X426.72Y-264.16
X426.72Y-273.05
X426.72Y-280.67
X426.76Y-337.74
X426.76Y-345.36
X427.99Y-147.32
X427.99Y-162.56
X427.99Y-295.91
X427.99Y-303.53
X427.99Y-311.15
X427.99Y-318.77
X429.26Y-232.41
X429.26Y-240.03
X429.26Y-248.92
X429.26Y-264.16
X429.26Y-273.05
X429.26Y-280.67
X430.53Y-147.32
X430.53Y-162.56
X430.53Y-295.91
X430.53Y-303.53
X430.53Y-311.15
X430.53Y-318.77
X430.53Y-330.28
X430.53Y-335.28
X431.8Y-232.41
X431.8Y-240.03
X431.8Y-248.92
X431.8Y-264.16
X431.8Y-273.05
X431.8Y-280.67
X433.07Y-147.32
X433.07Y-162.56
X433.07Y-295.91
X433.07Y-303.53
X433.07Y-311.15
X433.07Y-318.77
X434.34Y-248.92
X434.34Y-264.16
X434.34Y-273.05
X434.34Y-280.67
X435.61Y-295.91
X435.61Y-303.53
X435.61Y-311.15
X435.61Y-318.77
X436.88Y-248.92
X436.88Y-264.16
X438.15Y-295.91
X438.15Y-303.53
X438.15Y-311.15
X438.15Y-318.77
X439.42Y-232.41
X439.42Y-240.03
X439.42Y-248.92
X439.42Y-264.16
X441.96Y-232.41
X441.96Y-240.03
X441.96Y-248.92
X441.96Y-264.16
X444.5Y-186.69
X444.5Y-194.31
X444.5Y-203.2
X444.5Y-210.82
X444.5Y-232.41
X444.5Y-240.03
X444.5Y-248.92
X444.5Y-264.16
X444.5Y-273.05
X444.5Y-280.67
X447.04Y-170.18
X447.04Y-177.8
X447.04Y-186.69
X447.04Y-194.31
X447.04Y-203.2
X447.04Y-210.82
X447.04Y-232.41
X447.04Y-240.03
X447.04Y-248.92
X447.04Y-264.16
X447.04Y-273.05
X447.04Y-280.67
X447.04Y-295.91
X447.04Y-303.53
X447.04Y-311.15
X447.04Y-318.77
X449.58Y-170.18
X449.58Y-177.8
X449.58Y-186.69
X449.58Y-194.31
X449.58Y-203.2
X449.58Y-210.82
X449.58Y-232.41
X449.58Y-240.03
X449.58Y-248.92
X449.58Y-264.16
X449.58Y-273.05
X449.58Y-280.67
X449.58Y-295.91
X449.58Y-303.53
X449.58Y-311.15
X449.58Y-318.77
X452.12Y-170.18
X452.12Y-177.8
X452.12Y-186.69
X452.12Y-194.31
X452.12Y-203.2
X452.12Y-210.82
X452.12Y-232.41
X452.12Y-240.03
X452.12Y-248.92
X452.12Y-264.16
X452.12Y-273.05
X452.12Y-280.67
X452.12Y-295.91
X452.12Y-303.53
X452.12Y-311.15
X452.12Y-318.77
X454.66Y-170.18
X454.66Y-177.8
X454.66Y-186.69
X454.66Y-194.31
X454.66Y-203.2
X454.66Y-210.82
X454.66Y-232.41
X454.66Y-240.03
X454.66Y-248.92
X454.66Y-264.16
X454.66Y-273.05
X454.66Y-280.67
X454.66Y-295.91
X454.66Y-303.53
X454.66Y-311.15
X454.66Y-318.77
X457.2Y-170.18
X457.2Y-177.8
X457.2Y-186.69
X457.2Y-194.31
X457.2Y-203.2
X457.2Y-210.82
X457.2Y-232.41
X457.2Y-240.03
X457.2Y-248.92
X457.2Y-264.16
X457.2Y-273.05
X457.2Y-280.67
X457.2Y-295.91
X457.2Y-303.53
X457.2Y-311.15
X457.2Y-318.77
X459.74Y-170.18
X459.74Y-177.8
X459.74Y-186.69
X459.74Y-194.31
X459.74Y-203.2
X459.74Y-210.82
X459.74Y-232.41
X459.74Y-240.03
X459.74Y-248.92
X459.74Y-264.16
X459.74Y-273.05
X459.74Y-280.67
X459.74Y-295.91
X459.74Y-303.53
X459.74Y-311.15
X459.74Y-318.77
X462.28Y-170.18
X462.28Y-177.8
X462.28Y-186.69
X462.28Y-194.31
X462.28Y-203.2
X462.28Y-210.82
X462.28Y-232.41
X462.28Y-240.03
X462.28Y-248.92
X462.28Y-264.16
X462.28Y-273.05
X462.28Y-280.67
X462.28Y-295.91
X462.28Y-303.53
X462.28Y-311.15
X462.28Y-318.77
T5
X421.72Y-353.06
X424.22Y-350.56
X426.72Y-353.06
T6
X106.68Y-170.18
X106.68Y-177.8
X106.68Y-186.69
X106.68Y-194.31
X106.68Y-205.74
X106.68Y-213.36
X106.68Y-236.22
X106.68Y-243.84
X106.68Y-256.54
X106.68Y-264.16
X106.68Y-273.05
X106.68Y-280.67
X106.68Y-299.72
X106.68Y-307.34
X106.68Y-317.5
X106.68Y-325.12
X106.68Y-334.01
X106.68Y-341.63
X111.76Y-224.79
X111.76Y-288.29
X113.03Y-147.32
X113.03Y-154.94
X113.03Y-162.56
X113.03Y-349.25
X114.3Y-224.79
X114.3Y-288.29
X115.57Y-162.56
X115.57Y-349.25
X116.84Y-224.79
X116.84Y-288.29
X118.11Y-162.56
X118.11Y-349.25
X119.38Y-224.79
X119.38Y-288.29
X120.65Y-162.56
X120.65Y-349.25
X121.92Y-224.79
X121.92Y-288.29
X123.19Y-162.56
X123.19Y-349.25
X124.46Y-224.79
X124.46Y-288.29
X125.73Y-162.56
X125.73Y-349.25
X127.0Y-224.79
X127.0Y-288.29
X128.27Y-162.56
X128.27Y-349.25
X129.54Y-186.69
X129.54Y-194.31
X129.54Y-224.79
X129.54Y-288.29
X130.81Y-162.56
X130.81Y-349.25
X132.08Y-224.79
X132.08Y-288.29
X133.35Y-162.56
X133.35Y-273.05
X133.35Y-280.67
X133.35Y-334.01
X133.35Y-341.63
X133.35Y-349.25
X134.62Y-224.79
X134.62Y-288.29
X135.89Y-162.56
X135.89Y-186.69
X135.89Y-194.31
X135.89Y-349.25
X137.16Y-170.18
X137.16Y-177.8
X137.16Y-224.79
X137.16Y-256.54
X137.16Y-264.16
X137.16Y-288.29
X137.16Y-299.72
X137.16Y-307.34
X137.16Y-317.5
X137.16Y-325.12
X138.43Y-162.56
X138.43Y-349.25
X143.51Y-147.32
X143.51Y-154.94
X144.78Y-317.5
X144.78Y-325.12
X147.32Y-170.18
X147.32Y-177.8
X147.32Y-205.74
X147.32Y-213.36
X147.32Y-236.14
X147.32Y-243.76
X147.32Y-299.72
X147.32Y-307.34
X148.59Y-224.79
X148.59Y-288.29
X149.86Y-349.25
X151.13Y-224.79
X151.13Y-288.29
X152.4Y-349.25
X153.67Y-224.79
X153.67Y-288.29
X154.94Y-349.25
X156.21Y-224.79
X156.21Y-288.29
X157.48Y-236.22
X157.48Y-243.84
X157.48Y-349.25
X158.75Y-189.23
X158.75Y-191.77
X158.75Y-224.79
X158.75Y-256.54
X158.75Y-264.16
X158.75Y-288.29
X160.02Y-273.05
X160.02Y-280.67
X160.02Y-334.01
X160.02Y-341.63
X160.02Y-349.25
X161.29Y-224.79
X161.29Y-288.29
X162.56Y-256.54
X162.56Y-264.16
X162.56Y-349.25
X163.83Y-224.79
X163.83Y-288.29
X165.1Y-186.69
X165.1Y-194.31
X165.1Y-201.93
X165.1Y-349.25
X166.37Y-224.79
X166.37Y-288.29
X167.64Y-201.93
X167.64Y-349.25
X168.91Y-224.79
X168.91Y-288.29
X170.18Y-349.25
X171.45Y-224.79
X171.45Y-288.29
X172.72Y-349.25
X173.99Y-147.32
X173.99Y-154.94
X173.99Y-224.79
X173.99Y-288.29
X175.26Y-317.5
X175.26Y-325.12
X175.26Y-349.25
X177.8Y-205.74
X177.8Y-213.36
X181.61Y-317.5
X181.61Y-325.12
X182.88Y-170.18
X182.88Y-177.8
X185.42Y-224.79
X185.42Y-299.72
X185.42Y-307.34
X186.69Y-273.05
X186.69Y-280.67
X186.69Y-334.01
X186.69Y-341.63
X186.69Y-349.25
X187.96Y-224.79
X189.23Y-186.69
X189.23Y-194.31
X189.23Y-349.25
X190.5Y-224.79
X191.77Y-349.25
X193.04Y-224.79
X193.04Y-256.54
X193.04Y-264.16
X194.31Y-349.25
X195.58Y-224.79
X195.58Y-288.29
X196.85Y-147.308
X196.85Y-154.928
X196.85Y-256.54
X196.85Y-264.16
X196.85Y-349.25
X198.12Y-224.79
X198.12Y-288.29
X199.39Y-349.25
X200.66Y-224.79
X200.66Y-288.29
X201.93Y-349.25
X203.2Y-224.79
X203.2Y-236.22
X203.2Y-243.84
X203.2Y-288.29
X204.47Y-349.25
X205.74Y-224.79
X205.74Y-288.29
X207.01Y-349.25
X208.28Y-170.18
X208.28Y-177.8
X208.28Y-205.74
X208.28Y-213.36
X208.28Y-224.79
X208.28Y-288.29
X208.28Y-299.72
X208.28Y-307.34
X209.55Y-349.25
X210.82Y-224.79
X212.09Y-349.25
X219.71Y-147.32
X219.71Y-154.94
X222.25Y-299.72
X222.25Y-307.34
X222.25Y-317.5
X222.25Y-325.12
X222.25Y-334.01
X222.25Y-341.63
X223.52Y-273.05
X223.52Y-280.67
X223.52Y-288.29
X224.79Y-349.25
X226.06Y-257.81
X226.06Y-265.43
X226.06Y-288.29
X227.33Y-349.25
X228.6Y-224.79
X228.6Y-232.41
X228.6Y-241.3
X228.6Y-248.92
X228.6Y-288.29
X229.87Y-170.18
X229.87Y-177.8
X229.87Y-186.69
X229.87Y-194.31
X229.87Y-203.2
X229.87Y-210.82
X229.87Y-349.25
X231.14Y-288.29
X232.41Y-349.25
X233.68Y-288.29
X234.95Y-349.25
X236.22Y-288.29
X237.49Y-349.25
X238.76Y-288.29
X240.03Y-349.25
X241.3Y-288.29
X242.57Y-349.25
X243.84Y-288.29
X245.11Y-349.25
X246.38Y-152.4
X246.38Y-154.94
X246.38Y-288.29
X247.65Y-349.25
X248.92Y-152.4
X248.92Y-154.94
X248.92Y-288.29
X250.19Y-349.25
X251.46Y-152.4
X251.46Y-154.94
X251.46Y-241.3
X251.46Y-248.92
X251.46Y-257.81
X251.46Y-265.43
X252.73Y-170.18
X252.73Y-177.8
X252.73Y-186.69
X252.73Y-194.31
X252.73Y-299.72
X252.73Y-307.34
X254.0Y-152.4
X254.0Y-154.94
X254.0Y-224.79
X254.0Y-232.41
X254.0Y-273.05
X254.0Y-280.67
X255.27Y-203.2
X255.27Y-210.82
X256.54Y-152.4
X256.54Y-154.94
X256.54Y-170.18
X256.54Y-177.8
X256.54Y-186.69
X256.54Y-194.31
X257.81Y-317.5
X257.81Y-325.12
X257.81Y-334.01
X257.81Y-341.63
X259.08Y-152.4
X259.08Y-154.94
X260.35Y-288.29
X260.35Y-299.72
X260.35Y-307.34
X261.62Y-152.4
X261.62Y-154.94
X261.62Y-349.25
X262.89Y-288.29
X264.16Y-152.4
X264.16Y-154.94
X264.16Y-203.2
X264.16Y-210.82
X264.16Y-273.05
X264.16Y-280.67
X264.16Y-349.25
X265.43Y-288.29
X266.7Y-152.4
X266.7Y-154.94
X266.7Y-349.25
X267.97Y-217.17
X267.97Y-288.29
X269.24Y-152.4
X269.24Y-154.94
X269.24Y-349.25
X270.51Y-217.17
X270.51Y-288.29
X271.78Y-152.4
X271.78Y-154.94
X271.78Y-349.25
X273.05Y-217.17
X273.05Y-288.29
X274.32Y-152.4
X274.32Y-154.94
X274.32Y-349.25
X275.59Y-217.17
X275.59Y-288.29
X276.86Y-152.4
X276.86Y-154.94
X276.86Y-224.79
X276.86Y-232.41
X276.86Y-241.3
X276.86Y-248.92
X276.86Y-349.25
X278.13Y-217.17
X278.13Y-257.81
X278.13Y-265.43
X278.13Y-288.29
X279.4Y-152.4
X279.4Y-154.94
X279.4Y-186.69
X279.4Y-194.31
X279.4Y-349.25
X280.67Y-217.17
X280.67Y-288.29
X281.94Y-152.4
X281.94Y-154.94
X281.94Y-349.25
X283.21Y-170.18
X283.21Y-177.8
X283.21Y-186.69
X283.21Y-194.31
X283.21Y-217.17
X283.21Y-224.79
X283.21Y-232.41
X283.21Y-241.3
X283.21Y-248.92
X283.21Y-288.29
X283.215Y-299.72
X283.215Y-307.34
X284.48Y-152.4
X284.48Y-154.94
X284.48Y-349.25
X285.75Y-217.17
X285.75Y-288.29
X287.02Y-152.4
X287.02Y-154.94
X287.02Y-273.05
X287.02Y-280.67
X287.02Y-349.25
X287.025Y-299.72
X287.025Y-307.34
X288.29Y-217.17
X288.29Y-317.5
X288.29Y-325.12
X289.56Y-152.4
X289.56Y-154.94
X290.83Y-217.17
X292.1Y-152.4
X292.1Y-154.94
X293.37Y-217.17
X294.64Y-152.4
X294.64Y-154.94
X294.64Y-203.2
X294.64Y-210.82
X294.64Y-318.77
X294.64Y-326.39
X294.64Y-334.01
X294.64Y-341.63
X295.91Y-273.05
X295.91Y-280.67
X297.18Y-152.4
X297.18Y-154.94
X297.18Y-288.29
X298.45Y-349.25
X299.72Y-152.4
X299.72Y-154.94
X299.72Y-288.29
X300.99Y-349.25
X302.26Y-152.4
X302.26Y-154.94
X302.26Y-257.81
X302.26Y-265.43
X302.26Y-288.29
X303.53Y-349.25
X304.8Y-152.4
X304.8Y-154.94
X304.8Y-203.2
X304.8Y-210.82
X304.8Y-288.29
X306.07Y-349.25
X307.34Y-152.4
X307.34Y-154.94
X307.34Y-288.29
X308.49Y-170.18
X308.49Y-177.8
X308.61Y-186.69
X308.61Y-194.31
X308.61Y-224.79
X308.61Y-232.41
X308.61Y-241.3
X308.61Y-248.92
X308.61Y-349.25
X309.88Y-152.4
X309.88Y-154.94
X309.88Y-288.29
X311.15Y-349.25
X312.42Y-152.4
X312.42Y-154.94
X312.42Y-288.29
X313.69Y-349.25
X314.96Y-152.4
X314.96Y-154.94
X314.96Y-288.29
X316.23Y-349.25
X317.5Y-152.4
X317.5Y-154.94
X317.5Y-288.29
X318.77Y-349.25
X320.04Y-152.4
X320.04Y-154.94
X320.04Y-288.29
X321.31Y-349.25
X322.58Y-152.4
X322.58Y-154.94
X322.58Y-288.29
X322.585Y-299.72
X322.585Y-307.34
X323.85Y-349.25
X325.12Y-152.4
X325.12Y-154.94
X326.395Y-299.72
X326.395Y-307.34
X327.66Y-318.77
X327.66Y-326.39
X331.47Y-170.18
X331.47Y-177.8
X331.47Y-186.69
X331.47Y-194.31
X331.47Y-203.2
X331.47Y-210.82
X331.47Y-224.79
X331.47Y-232.41
X331.47Y-241.3
X331.47Y-248.92
X331.47Y-257.81
X331.47Y-265.43
X331.47Y-318.77
X331.47Y-326.39
X331.47Y-334.01
X331.47Y-341.63
X334.01Y-288.29
X335.28Y-273.05
X335.28Y-280.67
X335.28Y-349.25
X336.55Y-288.29
X337.82Y-349.25
X339.09Y-288.29
X340.36Y-349.25
X341.63Y-288.29
X342.9Y-349.25
X344.17Y-288.29
X345.44Y-349.25
X346.71Y-288.29
X347.98Y-349.25
X349.25Y-288.29
X350.52Y-349.25
X351.79Y-288.29
X353.06Y-349.25
X354.325Y-170.18
X354.325Y-177.8
X354.33Y-186.69
X354.33Y-194.31
X354.33Y-203.2
X354.33Y-210.82
X354.33Y-224.79
X354.33Y-232.41
X354.33Y-241.3
X354.33Y-248.92
X354.33Y-257.81
X354.33Y-265.43
X354.33Y-288.29
X355.6Y-349.25
X356.87Y-288.29
X358.14Y-273.05
X358.14Y-280.67
X358.14Y-349.25
X359.41Y-288.29
X360.68Y-349.25
X370.84Y-170.18
X370.84Y-177.8
X370.84Y-186.69
X370.84Y-194.31
X370.84Y-203.2
X370.84Y-210.82
X370.84Y-232.41
X370.84Y-240.03
X370.84Y-252.73
X370.84Y-260.35
X370.84Y-273.05
X370.84Y-280.67
X370.84Y-295.91
X370.84Y-303.53
X370.84Y-311.15
X370.84Y-318.77
X372.11Y-327.66
X372.11Y-335.28
X372.11Y-342.9
X372.11Y-350.52
X375.92Y-224.79
X375.92Y-288.29
X378.46Y-224.79
X378.46Y-288.29
X381.0Y-224.79
X381.0Y-288.29
X383.54Y-224.79
X383.54Y-288.29
X386.08Y-224.79
X386.08Y-288.29
X388.62Y-224.79
X388.62Y-288.29
X391.16Y-217.17
X391.16Y-224.79
X391.16Y-288.29
X393.7Y-217.17
X393.7Y-224.79
X393.7Y-288.29
X394.97Y-295.91
X394.97Y-303.53
X394.97Y-311.15
X394.97Y-318.77
X394.97Y-342.9
X394.97Y-350.52
X396.24Y-224.79
X396.24Y-288.29
X398.78Y-224.79
X398.78Y-288.29
X401.32Y-224.79
X401.32Y-288.29
X403.86Y-170.18
X403.86Y-177.8
X403.86Y-273.05
X403.86Y-280.67
X405.13Y-186.69
X405.13Y-194.31
X405.13Y-203.2
X405.13Y-210.82
X406.4Y-232.41
X406.4Y-240.03
X407.67Y-273.05
X407.67Y-280.67
X412.75Y-232.41
X412.75Y-240.03
X412.75Y-288.29
X415.29Y-224.79
X415.29Y-288.29
X415.29Y-328.93
X415.29Y-331.47
X415.29Y-334.01
X415.29Y-337.82
X415.29Y-345.44
X416.56Y-252.73
X416.56Y-260.35
X417.83Y-224.79
X417.83Y-288.29
X419.1Y-295.91
X419.1Y-303.53
X419.1Y-311.15
X419.1Y-318.77
X420.37Y-224.79
X420.37Y-252.73
X420.37Y-260.35
X420.37Y-288.29
X422.91Y-224.79
X422.91Y-288.29
X425.45Y-288.29
X426.72Y-170.18
X426.72Y-177.8
X430.57Y-339.09
X430.57Y-346.71
X436.88Y-151.13
X436.88Y-158.75
X436.88Y-224.79
X436.88Y-288.29
X438.15Y-345.44
X438.158Y-337.812
X439.42Y-224.79
X439.42Y-288.29
X440.688Y-151.13
X440.688Y-158.75
X440.69Y-186.69
X440.69Y-194.31
X440.69Y-203.2
X440.69Y-210.82
X440.69Y-273.05
X440.69Y-280.67
X440.69Y-337.82
X440.69Y-345.44
X441.96Y-224.79
X441.96Y-288.29
X443.23Y-170.18
X443.23Y-177.8
X443.23Y-295.91
X443.23Y-303.53
X443.23Y-311.15
X443.23Y-318.77
X443.23Y-337.82
X443.23Y-345.44
X444.5Y-224.79
X444.5Y-288.29
X445.77Y-337.82
X445.77Y-345.44
X447.04Y-224.79
X447.04Y-288.29
X449.58Y-148.59
X449.58Y-151.13
X449.58Y-153.67
X449.58Y-156.21
X449.58Y-158.75
X449.58Y-161.29
X449.58Y-224.79
X449.58Y-288.29
X450.85Y-326.47
X450.85Y-331.47
X450.85Y-340.44
X450.85Y-345.44
X452.12Y-224.79
X452.12Y-288.29
X454.66Y-224.79
X454.66Y-288.29
X457.2Y-224.79
X457.2Y-288.29
X459.74Y-224.79
X459.74Y-288.29
X462.28Y-224.79
X462.28Y-288.29
X466.09Y-170.18
X466.09Y-177.8
X466.09Y-186.69
X466.09Y-194.31
X466.09Y-203.2
X466.09Y-210.82
X466.09Y-232.41
X466.09Y-240.03
X466.09Y-252.73
X466.09Y-260.35
X466.09Y-273.05
X466.09Y-280.67
X466.09Y-295.91
X466.09Y-303.53
X466.09Y-311.15
X466.09Y-318.77
T7
X455.78Y-326.97
X455.78Y-331.47
X455.78Y-340.94
X455.78Y-345.44
X462.28Y-326.97
X462.28Y-331.47
X462.28Y-340.94
X462.28Y-345.44
T2
G00X463.21Y-153.92
M15
G01X463.91Y-153.92
M16
G05
G00X463.21Y-162.56
M15
G01X463.91Y-162.56
M16
G05
G00X467.01Y-153.92
M15
G01X467.71Y-153.92
M16
G05
G00X467.01Y-162.56
M15
G01X467.71Y-162.56
M16
G05
M30
